<svg id="Group_704" data-name="Group 704" xmlns="http://www.w3.org/2000/svg" xmlns:xlink="http://www.w3.org/1999/xlink" width="194.845" height="220.643" viewBox="0 0 194.845 220.643">
  <defs>
    <clipPath id="clip-path">
      <rect id="Rectangle_710" data-name="Rectangle 710" width="194.845" height="220.643" fill="none"/>
    </clipPath>
    <clipPath id="clip-path-3">
      <rect id="Rectangle_692" data-name="Rectangle 692" width="2.018" height="12.777" fill="none"/>
    </clipPath>
    <clipPath id="clip-path-4">
      <rect id="Rectangle_693" data-name="Rectangle 693" width="42.519" height="4.524" fill="none"/>
    </clipPath>
    <clipPath id="clip-path-5">
      <rect id="Rectangle_695" data-name="Rectangle 695" width="19.774" height="22.707" fill="none"/>
    </clipPath>
    <clipPath id="clip-path-6">
      <rect id="Rectangle_696" data-name="Rectangle 696" width="1.81" height="1.753" fill="none"/>
    </clipPath>
    <clipPath id="clip-path-7">
      <rect id="Rectangle_697" data-name="Rectangle 697" width="19.623" height="14.408" fill="none"/>
    </clipPath>
    <clipPath id="clip-path-8">
      <rect id="Rectangle_701" data-name="Rectangle 701" width="13.434" height="6.416" fill="none"/>
    </clipPath>
    <clipPath id="clip-path-9">
      <rect id="Rectangle_702" data-name="Rectangle 702" width="2.153" height="2.153" fill="none"/>
    </clipPath>
    <clipPath id="clip-path-10">
      <rect id="Rectangle_705" data-name="Rectangle 705" width="20" height="10.571" fill="none"/>
    </clipPath>
    <clipPath id="clip-path-11">
      <rect id="Rectangle_706" data-name="Rectangle 706" width="3.23" height="3.23" fill="none"/>
    </clipPath>
    <clipPath id="clip-path-12">
      <rect id="Rectangle_708" data-name="Rectangle 708" width="31.232" height="22.276" fill="none"/>
    </clipPath>
  </defs>
  <g id="Group_703" data-name="Group 703" clip-path="url(#clip-path)">
    <path id="Path_1459" data-name="Path 1459" d="M164.4,127.991l3.294-1L182,126.57l3.229.877-.42,7.869-7.3,4.656-7.083-.14-4.451-4.058-.985-4.02Z" transform="translate(-75.916 -58.448)" fill="#ffbe9d"/>
    <g id="Group_702" data-name="Group 702">
      <g id="Group_701" data-name="Group 701" clip-path="url(#clip-path)">
        <path id="Path_1460" data-name="Path 1460" d="M184.549,140.361a48.047,48.047,0,0,0-2.9-5.221,12.965,12.965,0,0,0-7.47-5.436L162.5,126.54s-.6,11.663-8.611,11.663-9.591-10.931-9.591-10.931l-13.509,5.382c-.463.178-3.6,1.265-7.244,9.08-3.472,7.444-4.989,11.254-4.989,11.254L132.476,157l.867,12.519-.49,16.211h42.519l-.565-17.185.4-12.67.538.85,14.053-5.635s-1.83-3.692-5.248-10.732" transform="translate(-54.748 -58.434)" fill="#22c98c"/>
        <path id="Path_1461" data-name="Path 1461" d="M144.01,226.45a49.074,49.074,0,0,1-1.555,5.1,1.987,1.987,0,0,0,0,1.076c.167.35.867.221,1.249.145a23.333,23.333,0,0,1,10.818.9c3.563,1.076,7,3.046,10.694,2.982,2.5-.043,4.882-1.017,7.287-1.722a35.064,35.064,0,0,1,13.762-1.189,1.391,1.391,0,0,0,.926-.113c.409-.28.377-.877.3-1.367-.178-1.157-1.4-4.338-1.7-5.484" transform="translate(-65.748 -104.57)" fill="#22c98c"/>
        <path id="Path_1462" data-name="Path 1462" d="M140.989,151.75c.081,0,.538,3.854,1,8.611s.791,8.655.716,8.66-.538-3.854-1-8.611-.791-8.655-.716-8.66" transform="translate(-65.101 -70.075)" fill="#263238"/>
        <path id="Path_1463" data-name="Path 1463" d="M224.409,154.95c.075,0-.043,3.6-.269,8.03s-.474,8.019-.538,8.014.043-3.6.269-8.03.463-8.019.538-8.014" transform="translate(-103.247 -71.553)" fill="#263238"/>
        <path id="Path_1464" data-name="Path 1464" d="M185.7,127.65a1.5,1.5,0,0,1-.054.371c-.048.269-.118.619-.2,1.076a34.432,34.432,0,0,1-1.012,3.838,14.673,14.673,0,0,1-2.847,5.14,9.821,9.821,0,0,1-2.734,2.153,7.729,7.729,0,0,1-3.644.893,10.184,10.184,0,0,1-6.625-2.643,13.735,13.735,0,0,1-3.369-4.806,20.152,20.152,0,0,1-1.2-3.768c-.1-.457-.161-.813-.194-1.076a1.759,1.759,0,0,1-.043-.371,1.811,1.811,0,0,1,.1.361l.248,1.05a22.23,22.23,0,0,0,1.27,3.724,13.757,13.757,0,0,0,3.364,4.693,10.023,10.023,0,0,0,6.459,2.557,7.538,7.538,0,0,0,3.515-.856,9.63,9.63,0,0,0,2.691-2.1,14.743,14.743,0,0,0,2.853-5.038c.538-1.566.861-2.885,1.076-3.768l.258-1.044a2.813,2.813,0,0,1,.1-.382" transform="translate(-75.625 -58.946)" fill="#263238"/>
        <path id="Path_1465" data-name="Path 1465" d="M172.031,143.22c.048.065-.237.339-.63.619s-.753.447-.8.382.237-.339.635-.614.748-.447.791-.388" transform="translate(-78.78 -66.131)" fill="#263238"/>
        <path id="Path_1466" data-name="Path 1466" d="M182.1,150.472a2.357,2.357,0,0,1,0-1.136,2.428,2.428,0,0,1,.275-1.076c.081,0,.081.538,0,1.136a2.407,2.407,0,0,1-.275,1.076" transform="translate(-84.058 -68.464)" fill="#263238"/>
        <path id="Path_1467" data-name="Path 1467" d="M193.772,147.18c-.054.054-.5-.28-1-.754s-.85-.893-.8-.953.5.28,1,.754.856.883.8.953" transform="translate(-88.648 -67.174)" fill="#263238"/>
        <path id="Path_1468" data-name="Path 1468" d="M199.217,139.128c-.043.065-.447-.124-.937-.35s-.9-.4-.883-.484.484,0,1,.231.867.538.823.6" transform="translate(-91.154 -63.848)" fill="#263238"/>
        <path id="Path_1469" data-name="Path 1469" d="M166.6,134.1c.027.07-.258.242-.635.382s-.705.2-.732.124.258-.242.635-.382.732-.194.732-.124" transform="translate(-76.302 -61.913)" fill="#263238"/>
        <g id="Group_673" data-name="Group 673" transform="translate(120.447 85.539)" opacity="0.3">
          <g id="Group_672" data-name="Group 672">
            <g id="Group_671" data-name="Group 671" clip-path="url(#clip-path-3)">
              <path id="Path_1470" data-name="Path 1470" d="M224.4,158.93l1.41,12.18-1.491.6-.527-.85Z" transform="translate(-223.788 -158.93)"/>
            </g>
          </g>
        </g>
        <path id="Path_1471" data-name="Path 1471" d="M133.567,151.192a3.183,3.183,0,0,1-1.421-.635c-.727-.474-1.206-1-1.152-1.076q1.322.786,2.573,1.685Z" transform="translate(-60.489 -69.027)" fill="#fff"/>
        <path id="Path_1472" data-name="Path 1472" d="M152.938,155.509a9.981,9.981,0,0,1-2.336-.086,9.766,9.766,0,0,1-2.314-.361,10.025,10.025,0,0,1,2.341.086,9.371,9.371,0,0,1,2.309.361" transform="translate(-68.477 -71.59)" fill="#fff"/>
        <path id="Path_1473" data-name="Path 1473" d="M175.862,159.612a12.614,12.614,0,0,1-2.325-.2,13.538,13.538,0,0,1-2.309-.339,7.887,7.887,0,0,1,2.341.059,8.024,8.024,0,0,1,2.293.484" transform="translate(-79.07 -73.427)" fill="#fff"/>
        <path id="Path_1474" data-name="Path 1474" d="M204.288,157.16a13.576,13.576,0,0,1-2.691.587,13.725,13.725,0,0,1-2.729.312,27.174,27.174,0,0,1,5.414-.9Z" transform="translate(-91.834 -72.574)" fill="#fff"/>
        <path id="Path_1475" data-name="Path 1475" d="M224.335,150.39a2.915,2.915,0,0,1-1.292.947,2.858,2.858,0,0,1-1.555.382,11.786,11.786,0,0,1,1.437-.635,11.379,11.379,0,0,1,1.41-.694" transform="translate(-102.279 -69.447)" fill="#fff"/>
        <path id="Path_1476" data-name="Path 1476" d="M234.034,147.75a4.989,4.989,0,0,1-1.717.888,4.842,4.842,0,0,1-1.889.436,11.134,11.134,0,0,1,1.8-.694,9.715,9.715,0,0,1,1.8-.63" transform="translate(-106.407 -68.228)" fill="#fff"/>
        <path id="Path_1477" data-name="Path 1477" d="M211.832,146.36a22.516,22.516,0,0,1-4.844,1.141,22.247,22.247,0,0,1,4.844-1.141" transform="translate(-95.583 -67.586)" fill="#fff"/>
        <path id="Path_1478" data-name="Path 1478" d="M227.014,139.9a9.144,9.144,0,0,1-1.948,1.125,9.266,9.266,0,0,1-2.078.872A18.148,18.148,0,0,1,227.014,139.9Z" transform="translate(-102.972 -64.603)" fill="#fff"/>
        <path id="Path_1479" data-name="Path 1479" d="M211.929,138.039a10.394,10.394,0,0,1-3.321.748,5.212,5.212,0,0,1,1.615-.511,5.341,5.341,0,0,1,1.706-.237" transform="translate(-96.331 -63.743)" fill="#fff"/>
        <path id="Path_1480" data-name="Path 1480" d="M223.041,135.02c.032.075-.307.28-.754.463s-.829.269-.861.2.312-.28.759-.458.829-.274.856-.2" transform="translate(-102.25 -62.339)" fill="#fff"/>
        <path id="Path_1481" data-name="Path 1481" d="M182.65,155.114a6.84,6.84,0,0,1-2.4.065,6.738,6.738,0,0,1-2.341-.538,20.917,20.917,0,0,1,2.368.237,21.027,21.027,0,0,1,2.374.237" transform="translate(-82.155 -71.41)" fill="#fff"/>
        <path id="Path_1482" data-name="Path 1482" d="M199.561,151.422a2.327,2.327,0,0,1-1.006.42c-.576.156-1.076.221-1.076.145a2.4,2.4,0,0,1,1.006-.42c.576-.161,1.055-.221,1.076-.145" transform="translate(-91.192 -69.909)" fill="#fff"/>
        <path id="Path_1483" data-name="Path 1483" d="M163.732,150.874a6.534,6.534,0,0,1-1.911-.048,6.467,6.467,0,0,1-1.884-.334,6.628,6.628,0,0,1,1.911.054,6.835,6.835,0,0,1,1.884.328" transform="translate(-73.856 -69.473)" fill="#fff"/>
        <path id="Path_1484" data-name="Path 1484" d="M147.783,146.758a7.856,7.856,0,0,1-2.072-.28,7.723,7.723,0,0,1-2.013-.538,7.855,7.855,0,0,1,2.072.28,7.958,7.958,0,0,1,2.013.538" transform="translate(-66.357 -67.392)" fill="#fff"/>
        <path id="Path_1485" data-name="Path 1485" d="M149.67,138.426a4.565,4.565,0,0,1-1.577,0,4.464,4.464,0,0,1-1.555-.285,4.6,4.6,0,0,1,1.582,0,4.446,4.446,0,0,1,1.55.285" transform="translate(-67.669 -63.759)" fill="#fff"/>
        <path id="Path_1486" data-name="Path 1486" d="M160.564,142.067a2.324,2.324,0,0,1-1.432.091,2.249,2.249,0,0,1-1.324-.538,12.008,12.008,0,0,1,1.372.269,9.648,9.648,0,0,1,1.383.178" transform="translate(-72.873 -65.398)" fill="#fff"/>
        <path id="Path_1487" data-name="Path 1487" d="M159.417,134.385a3.535,3.535,0,0,1-1.367-.248,3.576,3.576,0,0,1-1.292-.538,3.464,3.464,0,0,1,1.367.242,3.525,3.525,0,0,1,1.292.544" transform="translate(-72.388 -61.693)" fill="#fff"/>
        <path id="Path_1488" data-name="Path 1488" d="M210.016,131.5c0,.075-.323.242-.764.377s-.823.178-.845.1.318-.242.764-.371.823-.167.845-.108" transform="translate(-96.238 -60.71)" fill="#fff"/>
        <path id="Path_1489" data-name="Path 1489" d="M133.707,161.072a10.574,10.574,0,0,1-3.079-1.432,10.228,10.228,0,0,1,3.079,1.432" transform="translate(-60.322 -73.719)" fill="#fff"/>
        <path id="Path_1490" data-name="Path 1490" d="M125.044,170.552a4.892,4.892,0,0,1-1.615-.156,4.951,4.951,0,0,1-1.572-.436,9.346,9.346,0,0,1,3.2.592Z" transform="translate(-56.272 -78.484)" fill="#fff"/>
        <path id="Path_1491" data-name="Path 1491" d="M136.305,174.224a14.038,14.038,0,0,1-1.954-.587,14.663,14.663,0,0,1-1.954-.6A7.693,7.693,0,0,1,136.305,174.224Z" transform="translate(-61.139 -79.907)" fill="#fff"/>
        <path id="Path_1492" data-name="Path 1492" d="M148.832,165.4a10.593,10.593,0,0,1-3.434,0,10.592,10.592,0,0,1,3.434,0" transform="translate(-67.142 -76.314)" fill="#fff"/>
        <path id="Path_1493" data-name="Path 1493" d="M153.019,177.834a21.318,21.318,0,0,1-2.185-.538,22.292,22.292,0,0,1-2.2-.538,8.609,8.609,0,0,1,4.381,1.076" transform="translate(-68.638 -81.622)" fill="#fff"/>
        <path id="Path_1494" data-name="Path 1494" d="M173.834,171.91a3.9,3.9,0,0,1-1.114,0,24.827,24.827,0,0,1-2.691-.328,25.387,25.387,0,0,1-2.621-.6,3.927,3.927,0,0,1-1.05-.388c0-.081,1.663.355,3.719.716s3.762.522,3.757.6" transform="translate(-76.821 -78.772)" fill="#fff"/>
        <path id="Path_1495" data-name="Path 1495" d="M176.2,181.3a10.735,10.735,0,0,1-2.438,0,10.122,10.122,0,0,1-2.417-.274,11.072,11.072,0,0,1,2.433,0,10.947,10.947,0,0,1,2.422.274" transform="translate(-79.125 -83.562)" fill="#fff"/>
        <path id="Path_1496" data-name="Path 1496" d="M191.044,166.835a20.094,20.094,0,0,1-4.736.118,20.1,20.1,0,0,1,4.736-.118" transform="translate(-86.034 -77.001)" fill="#fff"/>
        <path id="Path_1497" data-name="Path 1497" d="M201.756,177.908a20.584,20.584,0,0,1-3.418.506,22.018,22.018,0,0,1-3.45.226,42.4,42.4,0,0,1,6.868-.732" transform="translate(-89.996 -82.154)" fill="#fff"/>
        <path id="Path_1498" data-name="Path 1498" d="M212.292,165.59a19.587,19.587,0,0,1-3.165.9,19.18,19.18,0,0,1-3.229.64,19.289,19.289,0,0,1,3.165-.91,19.559,19.559,0,0,1,3.229-.635" transform="translate(-95.08 -76.466)" fill="#fff"/>
        <path id="Path_1499" data-name="Path 1499" d="M216.622,173.68a2.4,2.4,0,0,1-1.206.7,2.449,2.449,0,0,1-1.389.178,6.939,6.939,0,0,1,1.3-.441,6.6,6.6,0,0,1,1.3-.436" transform="translate(-98.834 -80.202)" fill="#fff"/>
        <path id="Path_1500" data-name="Path 1500" d="M230.661,157.41a5.683,5.683,0,0,1-1.674.624,5.576,5.576,0,0,1-1.749.355,5.855,5.855,0,0,1,1.674-.624,6,6,0,0,1,1.749-.355" transform="translate(-104.934 -72.689)" fill="#fff"/>
        <path id="Path_1501" data-name="Path 1501" d="M236.231,166.71a31.117,31.117,0,0,1-5.673,1.464,15.286,15.286,0,0,1,2.8-.867,14.964,14.964,0,0,1,2.874-.6" transform="translate(-106.467 -76.984)" fill="#fff"/>
        <path id="Path_1502" data-name="Path 1502" d="M240.264,158.96a8.513,8.513,0,0,1-1.959.958,8.628,8.628,0,0,1-2.067.7,17.271,17.271,0,0,1,4.026-1.658" transform="translate(-109.09 -73.405)" fill="#fff"/>
        <path id="Path_1503" data-name="Path 1503" d="M233.275,174.8a11.671,11.671,0,0,1-3.2,1.658,11.671,11.671,0,0,1,3.2-1.658" transform="translate(-106.246 -80.719)" fill="#fff"/>
        <path id="Path_1504" data-name="Path 1504" d="M156.258,194.972a9.37,9.37,0,0,1-2.261-.038,9.254,9.254,0,0,1-2.239-.318,9.371,9.371,0,0,1,2.261.038,9.255,9.255,0,0,1,2.239.318" transform="translate(-70.079 -89.847)" fill="#fff"/>
        <path id="Path_1505" data-name="Path 1505" d="M162.992,188.886a22.13,22.13,0,0,1-4.844-1.076,20.592,20.592,0,0,1,4.844,1.076" transform="translate(-73.03 -86.727)" fill="#fff"/>
        <path id="Path_1506" data-name="Path 1506" d="M189.224,189.64a14.535,14.535,0,0,1-4.026,0,14.533,14.533,0,0,1,4.026,0" transform="translate(-85.521 -87.508)" fill="#fff"/>
        <path id="Path_1507" data-name="Path 1507" d="M182.352,198.056a3.512,3.512,0,0,1-1.076.129,17.785,17.785,0,0,1-2.562-.091,16.941,16.941,0,0,1-2.524-.463,3.538,3.538,0,0,1-1-.35c0-.081,1.582.328,3.558.538s3.6.151,3.606.237" transform="translate(-80.899 -91.096)" fill="#fff"/>
        <path id="Path_1508" data-name="Path 1508" d="M211.054,192.366a11.681,11.681,0,0,1-3.132.355,11.869,11.869,0,0,1-3.143-.215c0-.081,1.41-.027,3.138-.065s3.127-.156,3.138-.075" transform="translate(-94.563 -88.819)" fill="#fff"/>
        <path id="Path_1509" data-name="Path 1509" d="M212.341,184.26a16.463,16.463,0,0,1-4.263.71,16.558,16.558,0,0,1,4.263-.71" transform="translate(-96.087 -85.088)" fill="#fff"/>
        <path id="Path_1510" data-name="Path 1510" d="M152.873,232.113a23.721,23.721,0,0,1-2.427-.081,23.713,23.713,0,0,1-2.427-.038,7.034,7.034,0,0,1,2.438-.242,6.939,6.939,0,0,1,2.417.361" transform="translate(-68.352 -107.01)" fill="#fff"/>
        <path id="Path_1511" data-name="Path 1511" d="M168.238,236.767a15.412,15.412,0,0,1-2.971-.151,16.24,16.24,0,0,1-2.949-.431,15.467,15.467,0,0,1,2.976.151,16,16,0,0,1,2.944.431" transform="translate(-74.956 -109.059)" fill="#fff"/>
        <path id="Path_1512" data-name="Path 1512" d="M184.078,241a10.218,10.218,0,0,1-2.933.538,10.365,10.365,0,0,1-2.987-.054c0-.081,1.335-.091,2.966-.221s2.939-.344,2.955-.264" transform="translate(-82.27 -111.284)" fill="#fff"/>
        <path id="Path_1513" data-name="Path 1513" d="M183.564,233.547a10.669,10.669,0,0,1-2.363.258,10.3,10.3,0,0,1-2.374,0,9.844,9.844,0,0,1,2.357-.258,9.667,9.667,0,0,1,2.379,0" transform="translate(-82.58 -107.814)" fill="#fff"/>
        <path id="Path_1514" data-name="Path 1514" d="M168.849,229.082a19.18,19.18,0,0,1-3.229.2,19.418,19.418,0,0,1-3.262-.081,37.775,37.775,0,0,1,6.491-.118" transform="translate(-74.974 -105.733)" fill="#fff"/>
        <path id="Path_1515" data-name="Path 1515" d="M199.834,228.866a35.347,35.347,0,0,1-6.276.474,18.409,18.409,0,0,1,3.127-.377,18.207,18.207,0,0,1,3.149-.1" transform="translate(-89.382 -105.673)" fill="#fff"/>
        <path id="Path_1516" data-name="Path 1516" d="M201.118,234.861c0,.086-1.394.194-3.062.6s-2.966.947-3,.872a8.783,8.783,0,0,1,2.933-1.146,9.05,9.05,0,0,1,3.127-.328" transform="translate(-90.074 -108.444)" fill="#fff"/>
        <path id="Path_1517" data-name="Path 1517" d="M219.055,231.482a3.848,3.848,0,0,1-1.41.3,3.689,3.689,0,0,1-1.437,0,7.359,7.359,0,0,1,2.847-.312Z" transform="translate(-99.841 -106.874)" fill="#fff"/>
        <path id="Path_1518" data-name="Path 1518" d="M201.653,131.292c-.032.07-.468-.086-1.006-.269s-.98-.312-.969-.393a1.706,1.706,0,0,1,1.076.129c.544.188.937.468.9.533" transform="translate(-92.208 -60.306)" fill="#263238"/>
        <path id="Path_1519" data-name="Path 1519" d="M156.854,207.607a15.439,15.439,0,0,1-2.944-.167A15.705,15.705,0,0,1,151,207a14.916,14.916,0,0,1,2.939.167,15.808,15.808,0,0,1,2.917.441" transform="translate(-69.728 -95.582)" fill="#fff"/>
        <path id="Path_1520" data-name="Path 1520" d="M174.764,205.528a8.619,8.619,0,0,1-2.234,0,9.263,9.263,0,0,1-2.212-.28,8.619,8.619,0,0,1,2.234,0,9.262,9.262,0,0,1,2.212.28" transform="translate(-78.65 -94.746)" fill="#fff"/>
        <path id="Path_1521" data-name="Path 1521" d="M200.175,203.85c0,.081-1.276.07-2.831.21s-2.809.361-2.826.28a9.1,9.1,0,0,1,2.8-.538,8.965,8.965,0,0,1,2.858.048" transform="translate(-89.825 -94.069)" fill="#fff"/>
        <path id="Path_1522" data-name="Path 1522" d="M210.272,213.158a27.745,27.745,0,0,1-3.94.086,28.1,28.1,0,0,1-3.934-.2,26.824,26.824,0,0,1,3.94-.086,28.1,28.1,0,0,1,3.934.2" transform="translate(-93.464 -98.324)" fill="#fff"/>
        <path id="Path_1523" data-name="Path 1523" d="M215.456,201.33a4.517,4.517,0,0,1-2.928.506,6.724,6.724,0,0,1,1.459-.28,6.888,6.888,0,0,1,1.469-.226" transform="translate(-98.142 -92.971)" fill="#fff"/>
        <path id="Path_1524" data-name="Path 1524" d="M184.953,212.991a5.174,5.174,0,0,1-2.293.334,5.259,5.259,0,0,1-2.282-.431c0-.081,1.028.129,2.287.151s2.271-.135,2.287-.054" transform="translate(-83.295 -98.302)" fill="#fff"/>
        <path id="Path_1525" data-name="Path 1525" d="M169.7,214.72a17.663,17.663,0,0,1-4.44,0,17.667,17.667,0,0,1,4.44,0" transform="translate(-76.313 -99.089)" fill="#fff"/>
        <path id="Path_1526" data-name="Path 1526" d="M159.409,220.466a11.428,11.428,0,0,1-3.531-.1,5.576,5.576,0,0,1,1.771-.092,5.458,5.458,0,0,1,1.76.194" transform="translate(-71.982 -101.703)" fill="#fff"/>
        <path id="Path_1527" data-name="Path 1527" d="M181.225,222.5a14.1,14.1,0,0,1-2.831.043,14.717,14.717,0,0,1-2.826-.237,28.646,28.646,0,0,1,5.657.194" transform="translate(-81.074 -102.617)" fill="#fff"/>
        <path id="Path_1528" data-name="Path 1528" d="M202.464,219.416a21.024,21.024,0,0,1-2.47-.059,21.6,21.6,0,0,1-2.476-.075,7.438,7.438,0,0,1,2.481-.2,7.574,7.574,0,0,1,2.465.339" transform="translate(-91.21 -101.153)" fill="#fff"/>
        <path id="Path_1529" data-name="Path 1529" d="M217.2,223.91a21.187,21.187,0,0,1-2.519.161,20.918,20.918,0,0,1-2.53.14,12,12,0,0,1,5.048-.3" transform="translate(-97.966 -103.333)" fill="#fff"/>
        <path id="Path_1530" data-name="Path 1530" d="M149.134,215.164c0,.075-.4.2-.936.285s-.969.091-.98,0,.409-.2.937-.291.98-.075.98.005" transform="translate(-67.982 -99.329)" fill="#fff"/>
        <path id="Path_1531" data-name="Path 1531" d="M150.508,184.961a2.468,2.468,0,0,1-1.146.242,2.529,2.529,0,0,1-1.173-.038A4.891,4.891,0,0,1,150.508,184.961Z" transform="translate(-68.431 -85.386)" fill="#fff"/>
        <path id="Path_1532" data-name="Path 1532" d="M164.4,162.717a2.58,2.58,0,0,1-1.179,0c-.64-.086-1.152-.215-1.141-.3a2.579,2.579,0,0,1,1.179,0c.64.086,1.152.215,1.141.3" transform="translate(-74.845 -74.972)" fill="#fff"/>
        <path id="Path_1533" data-name="Path 1533" d="M214.031,160.85a12.89,12.89,0,0,1-2.6.587,12.709,12.709,0,0,1-2.648.312,13.093,13.093,0,0,1,2.6-.592,12.489,12.489,0,0,1,2.648-.307" transform="translate(-96.41 -74.278)" fill="#fff"/>
        <g id="Group_676" data-name="Group 676" transform="translate(77.971 122.122)" opacity="0.3">
          <g id="Group_675" data-name="Group 675">
            <g id="Group_674" data-name="Group 674" clip-path="url(#clip-path-4)">
              <path id="Path_1534" data-name="Path 1534" d="M144.868,226.905a4.8,4.8,0,0,0,3.956,1.932c1.529.086,3.062-.178,4.58,0,2.379.291,4.5,1.647,6.83,2.234,5.3,1.324,10.764-1.5,16.211-1.523,1.857,0,3.7.312,5.56.388a9.834,9.834,0,0,0,5.382-1.044l-.135-1.991Z" transform="translate(-144.868 -226.9)"/>
            </g>
          </g>
        </g>
        <rect id="Rectangle_694" data-name="Rectangle 694" width="31.497" height="7.573" transform="translate(84.402 150.211)" fill="#455a64"/>
        <path id="Path_1535" data-name="Path 1535" d="M147.631,293.16l-16.034,62.2h3.455l17.584-62.2Z" transform="translate(-60.769 -135.376)" fill="#455a64"/>
        <path id="Path_1536" data-name="Path 1536" d="M204.9,293.16l16.152,62.2H217.6l-17.7-62.2Z" transform="translate(-92.309 -135.376)" fill="#455a64"/>
        <path id="Path_1537" data-name="Path 1537" d="M182.007,293.52c.048.059-4.6,4.236-10.393,9.327s-10.528,9.177-10.576,9.117,4.6-4.23,10.393-9.327,10.522-9.171,10.576-9.117" transform="translate(-74.364 -135.542)" fill="#263238"/>
        <path id="Path_1538" data-name="Path 1538" d="M193.8,311.929c-.048.065-5.5-4.128-12.18-9.354s-12.051-9.51-12-9.575,5.5,4.128,12.174,9.354,12.051,9.516,12.008,9.575" transform="translate(-78.326 -135.301)" fill="#263238"/>
        <path id="Path_1539" data-name="Path 1539" d="M188.7,293.045c0,.075-6.878.14-15.361.14s-15.361-.065-15.361-.14,6.878-.145,15.361-.145,15.361.065,15.361.145" transform="translate(-72.951 -135.256)" fill="#263238"/>
        <path id="Path_1540" data-name="Path 1540" d="M184.6,367.52l-6.459,10.328L197.8,390.227c1.076-1.948-6.728-12.131-6.728-12.131l3.122-4.586Z" transform="translate(-82.261 -169.714)" fill="#ff725e"/>
        <g id="Group_679" data-name="Group 679" transform="translate(95.861 197.806)" opacity="0.3">
          <g id="Group_678" data-name="Group 678">
            <g id="Group_677" data-name="Group 677" clip-path="url(#clip-path-5)">
              <path id="Path_1541" data-name="Path 1541" d="M184.54,367.52l-6.432,10.328,19.672,12.379c1.076-1.948-6.733-12.131-6.733-12.131l3.122-4.586Z" transform="translate(-178.108 -367.52)"/>
            </g>
          </g>
        </g>
        <path id="Path_1542" data-name="Path 1542" d="M190.855,378.492a.947.947,0,0,0-1.114.538.915.915,0,0,0,.538,1.13,1.007,1.007,0,0,0,1.195-.608.942.942,0,0,0-.71-1.06" transform="translate(-87.599 -174.766)" fill="#fff"/>
        <path id="Path_1543" data-name="Path 1543" d="M178.178,385.225l.99-1.615,18.461,12.637s.63.936.14,1.485Z" transform="translate(-82.279 -177.144)" fill="#fff"/>
        <path id="Path_1544" data-name="Path 1544" d="M200.729,386.943c-.065.092-.571-.167-1.238-.156s-1.173.258-1.238.161.431-.538,1.238-.538,1.313.457,1.238.533" transform="translate(-91.547 -178.437)" fill="#263238"/>
        <path id="Path_1545" data-name="Path 1545" d="M203.813,391.184c-.038.1-.538,0-1.141.2s-.947.576-1.039.511.188-.651.915-.883,1.308.07,1.265.167" transform="translate(-93.103 -180.525)" fill="#263238"/>
        <path id="Path_1546" data-name="Path 1546" d="M204.956,396.282c-.1-.032.07-.6.646-.969s1.163-.3,1.152-.188-.463.21-.937.538-.759.673-.861.619" transform="translate(-94.633 -182.421)" fill="#263238"/>
        <path id="Path_1547" data-name="Path 1547" d="M203.452,381.8c-.1.059-.452-.35-1.017-.657s-1.076-.4-1.076-.511.624-.2,1.286.167.9.953.807,1" transform="translate(-92.983 -175.724)" fill="#263238"/>
        <path id="Path_1548" data-name="Path 1548" d="M181.6,367.76l6.41,9.979L168.519,390.4c-1.076-1.938,6.561-12.228,6.561-12.228l-3.014-4.306Z" transform="translate(-77.771 -169.825)" fill="#ff725e"/>
        <g id="Group_682" data-name="Group 682" transform="translate(102.164 203.552)" opacity="0.6">
          <g id="Group_681" data-name="Group 681">
            <g id="Group_680" data-name="Group 680" clip-path="url(#clip-path-6)">
              <path id="Path_1549" data-name="Path 1549" d="M190.443,378.235a.942.942,0,0,1,1.141.538.915.915,0,0,1-.538,1.136,1,1,0,0,1-1.206-.592.953.953,0,0,1,.689-1.119" transform="translate(-189.819 -378.195)" fill="#fff"/>
            </g>
          </g>
        </g>
        <g id="Group_685" data-name="Group 685" transform="translate(90.592 206.234)" opacity="0.6">
          <g id="Group_684" data-name="Group 684">
            <g id="Group_683" data-name="Group 683" clip-path="url(#clip-path-7)">
              <path id="Path_1550" data-name="Path 1550" d="M187.942,384.795l-1.012-1.615-18.3,12.917s-.614.947-.118,1.491Z" transform="translate(-168.319 -383.18)" fill="#fff"/>
            </g>
          </g>
        </g>
        <path id="Path_1551" data-name="Path 1551" d="M180.082,386.825c.065.091.571-.172,1.238-.172s1.173.242,1.238.145-.436-.538-1.243-.538-1.308.49-1.233.565" transform="translate(-83.155 -178.368)" fill="#263238"/>
        <path id="Path_1552" data-name="Path 1552" d="M177.305,391.125c.038.108.538,0,1.141.194s.958.538,1.05.49-.2-.64-.931-.867-1.313.091-1.259.183" transform="translate(-81.875 -180.493)" fill="#263238"/>
        <path id="Path_1553" data-name="Path 1553" d="M176.552,396.246c.1-.038-.075-.6-.662-.963s-1.163-.28-1.152-.172.468.2.942.511.77.673.872.624" transform="translate(-80.691 -182.412)" fill="#263238"/>
        <path id="Path_1554" data-name="Path 1554" d="M177.62,381.711c.1.065.447-.355,1.006-.667s1.076-.414,1.076-.538-.624-.194-1.281.188-.9.974-.8,1.017" transform="translate(-82.012 -175.665)" fill="#263238"/>
        <path id="Path_1555" data-name="Path 1555" d="M132.516,236.24S115.423,253.124,119,265.207c2.847,9.548,27.594,49.591,27.594,49.591l14.86-9.72-19.338-36.018a29.192,29.192,0,0,0-1.076-5.2l1.076-1.437s6.41-3.036,11.792-2.691l.479-23.326Z" transform="translate(-54.723 -109.091)" fill="#263238"/>
        <path id="Path_1556" data-name="Path 1556" d="M183.742,259.878s10.011,2.481,12.11,2.481c1.324,0,.6,3.961,1.313,5.576v.35L183.118,305.5l14.494,8.552s10.953-27.573,13.289-32.234,6.087-15.506,7.535-18.73-.538-8.8-3.046-13.644-10.4-12.917-10.4-12.917H184.221Z" transform="translate(-84.561 -109.225)" fill="#263238"/>
        <path id="Path_1557" data-name="Path 1557" d="M225.164,267.412a18.44,18.44,0,0,0-2.691-.662,11.1,11.1,0,0,0-11.227,5.339,18.848,18.848,0,0,0-1.168,2.481,2.948,2.948,0,0,1,.178-.721,9.616,9.616,0,0,1,.823-1.862,10.9,10.9,0,0,1,11.426-5.431,9.766,9.766,0,0,1,1.959.538,3.333,3.333,0,0,1,.7.318" transform="translate(-97.01 -123.013)" fill="#455a64"/>
        <path id="Path_1558" data-name="Path 1558" d="M216.2,284.52a10.049,10.049,0,0,1-1.222.721,24.033,24.033,0,0,0-2.815,1.9,23.533,23.533,0,0,0-2.508,2.287,11.27,11.27,0,0,1-.985,1.017,5.382,5.382,0,0,1,.84-1.152,17.571,17.571,0,0,1,2.481-2.374,17.211,17.211,0,0,1,2.89-1.851,5.694,5.694,0,0,1,1.319-.549" transform="translate(-96.359 -131.386)" fill="#455a64"/>
        <path id="Path_1559" data-name="Path 1559" d="M150.533,279.371c-.048.032-.538-.737-1.512-1.776a13.892,13.892,0,0,0-1.905-1.658,14.321,14.321,0,0,0-5.614-2.46,15.057,15.057,0,0,0-2.508-.3c-1.437-.048-2.33.086-2.336.032a2.36,2.36,0,0,1,.619-.124,6.051,6.051,0,0,1,.737-.075c.291,0,.619-.048.985-.032a14,14,0,0,1,2.551.242,15.157,15.157,0,0,1,3,.931,14.716,14.716,0,0,1,2.691,1.577,13.286,13.286,0,0,1,1.895,1.728c.253.264.441.538.624.764a5.453,5.453,0,0,1,.431.6,2.827,2.827,0,0,1,.339.549" transform="translate(-63.106 -126.054)" fill="#455a64"/>
        <path id="Path_1560" data-name="Path 1560" d="M159.279,278.118a11.915,11.915,0,0,1-.3-1.254,15.464,15.464,0,0,0-1.076-2.89,30.138,30.138,0,0,0-2.309-3.714,4.622,4.622,0,0,1,.893.936,13.978,13.978,0,0,1,1.668,2.653,12,12,0,0,1,1,2.976,3.872,3.872,0,0,1,.124,1.292" transform="translate(-71.852 -124.801)" fill="#455a64"/>
        <path id="Path_1561" data-name="Path 1561" d="M162.061,334.65l.065-.054.194-.14.78-.538,2.976-1.986,10.651-7.024-.038.156-8.2-15.517c-4.273-8.138-8.159-15.549-11.055-21.055v-.027q-.539-2.632-1-4.688a7.579,7.579,0,0,0-2.906-3.741,8.885,8.885,0,0,0-1.125-.624l-.3-.129c-.065-.032-.1-.048-.1-.054a5.985,5.985,0,0,1,1.566.737,7.538,7.538,0,0,1,3.014,3.768l1.033,4.677v-.027l11.12,21.017,8.17,15.538.048.1-.092.059-10.711,6.943-3.014,1.932-.8.5-.2.124Z" transform="translate(-70.194 -128.943)" fill="#455a64"/>
        <path id="Path_1562" data-name="Path 1562" d="M172.538,268.679c0,.054-.775,0-2.018.07a23.749,23.749,0,0,0-4.79.791,20.018,20.018,0,0,0-4.5,1.792c-1.076.608-1.674,1.114-1.706,1.076a2.207,2.207,0,0,1,.393-.377,4.69,4.69,0,0,1,.506-.4,7.384,7.384,0,0,1,.71-.468,17.238,17.238,0,0,1,4.526-1.889,20.45,20.45,0,0,1,4.844-.721,11.5,11.5,0,0,1,1.491.048,2.078,2.078,0,0,1,.549.075" transform="translate(-73.662 -124.011)" fill="#455a64"/>
        <path id="Path_1563" data-name="Path 1563" d="M175.007,254.789a1.962,1.962,0,0,1-.28-.506l-.673-1.415a21.813,21.813,0,0,0-2.643-4.392,9.9,9.9,0,0,0-4.053-3.014,11.752,11.752,0,0,0-2.061-.5,1.949,1.949,0,0,1,.581,0,6.358,6.358,0,0,1,1.55.323,9.539,9.539,0,0,1,4.2,3.025,18.976,18.976,0,0,1,2.61,4.489c.264.608.463,1.109.592,1.453a2.673,2.673,0,0,1,.178.538" transform="translate(-76.332 -113.109)" fill="#455a64"/>
        <path id="Path_1564" data-name="Path 1564" d="M197.727,247.749c0,.059-.786.1-2.008.425a13.108,13.108,0,0,0-2.072.77,12.747,12.747,0,0,0-5.538,5.07c-.635,1.076-.877,1.846-.931,1.83a2.281,2.281,0,0,1,.151-.538,4.086,4.086,0,0,1,.231-.608c.108-.231.215-.5.377-.78a11.536,11.536,0,0,1,1.254-1.868,11.95,11.95,0,0,1,4.349-3.337,11.241,11.241,0,0,1,2.153-.727,7.872,7.872,0,0,1,.85-.161,3.948,3.948,0,0,1,.646-.07,2.369,2.369,0,0,1,.538-.005" transform="translate(-86.435 -114.4)" fill="#455a64"/>
        <path id="Path_1565" data-name="Path 1565" d="M200.1,273.427c-.043.038-.571-.538-1.615-1.233a19.507,19.507,0,0,0-4.462-2.061,23.155,23.155,0,0,0-4.806-1.076l-.845-.059h-.657a2.307,2.307,0,0,1-.538,0,1.931,1.931,0,0,1,.538-.129c.178,0,.4-.032.651-.048h.861a20.336,20.336,0,0,1,4.882,1.012,17.413,17.413,0,0,1,4.483,2.153,6.586,6.586,0,0,1,.684.538,3.95,3.95,0,0,1,.474.441,2.385,2.385,0,0,1,.35.463" transform="translate(-86.435 -124.136)" fill="#455a64"/>
        <path id="Path_1566" data-name="Path 1566" d="M211.236,282.966c0,.027-.194-.075-.387-.323a2.319,2.319,0,0,1-.248-2.336c.14-.285.285-.414.312-.4a4.746,4.746,0,0,0-.226,1.572,4.577,4.577,0,0,0,.549,1.485" transform="translate(-97.156 -129.256)" fill="#455a64"/>
        <path id="Path_1567" data-name="Path 1567" d="M210.311,288.774c-.032,0-.151-.118-.264-.388a2.374,2.374,0,0,1,.28-2.153c.172-.231.328-.334.35-.307a6.462,6.462,0,0,0-.479,1.389,6.345,6.345,0,0,0,.113,1.459" transform="translate(-96.931 -132.034)" fill="#455a64"/>
        <path id="Path_1568" data-name="Path 1568" d="M184.3,262.8a37.436,37.436,0,0,1,.081,4.623,37.918,37.918,0,0,1-.2,4.618,77.849,77.849,0,0,1,.124-9.241" transform="translate(-84.995 -121.356)" fill="#455a64"/>
        <path id="Path_1569" data-name="Path 1569" d="M184.453,81.025a1.43,1.43,0,0,1-1.862-.813,3.278,3.278,0,0,1,.065-2.239,9.318,9.318,0,0,0,.6-2.2,3.23,3.23,0,0,0-2.18-3.192,3.041,3.041,0,0,0,.287-4.291l-.077-.085a11.974,11.974,0,0,0-1.943-1.249,6.662,6.662,0,0,1-1.028-.84c.577.146-1.432-2.061-1.555-1.808-1.179-1.561-2.287-3.17-4.107-3.719-1.647-.5-3.418.054-5.135-.07-1.249-.091-2.449-.538-3.7-.678a3.607,3.607,0,0,0-3.4,1.146c-.436.592-.571,1.367-1.006,1.959-.9,1.222-2.847,1.389-3.59,2.691-.6,1.076-.14,2.438-.4,3.649-.28,1.313-1.362,2.271-2.25,3.278s-1.658,2.4-1.163,3.644c.436,1.076,1.717,1.69,2.153,2.793a6.955,6.955,0,0,1,.065,2.567c-.016.861.334,1.884,1.173,2.078l9.553,2.524c3.294,1.34,6.69,2.691,10.226,2.691s7.341-1.706,8.746-4.973a2.038,2.038,0,0,1-1.372-.614,3.433,3.433,0,0,0,1.895-2.25" transform="translate(-70.126 -27.617)" fill="#263238"/>
        <path id="Path_1570" data-name="Path 1570" d="M196.5,89.635a43.986,43.986,0,0,0,1.927-7.39,15.454,15.454,0,0,0-.608-7.535c-.135-.361-1.281-2.788-1.663-2.75-.274.027.431,2.293.291,2.53a13.147,13.147,0,0,0-1.475,7.648,34.765,34.765,0,0,0,1.529,7.508" transform="translate(-90.008 -33.229)" fill="#263238"/>
        <path id="Path_1571" data-name="Path 1571" d="M171.366,107.458c3.951-.086,8.434-8.719,8.434-8.719l.258-22.191c.21-6.389-3.337-11.841-9.731-11.868l-.592.032a11.432,11.432,0,0,0-10.813,11.1c-.151,5.538-.242,11.663-.048,14.618.4,6.12,6.582,6.744,6.582,6.744s.032,1.421.054,3.229c.043,4.042,4.273,7.191,5.856,7.056Z" transform="translate(-73.314 -29.868)" fill="#ffbe9d"/>
        <path id="Path_1572" data-name="Path 1572" d="M171.2,122.673a14.8,14.8,0,0,0,7.847-2.783s-1.706,4.559-7.847,4.306Z" transform="translate(-79.056 -55.363)" fill="#eb996e"/>
        <path id="Path_1573" data-name="Path 1573" d="M163.968,93.584a.883.883,0,0,0,.893.84.84.84,0,0,0,.856-.823v-.016a.867.867,0,0,0-.888-.834.84.84,0,0,0-.861.818v.017" transform="translate(-75.717 -42.83)" fill="#263238"/>
        <path id="Path_1574" data-name="Path 1574" d="M161.755,89.092c.113.113.748-.414,1.69-.463s1.658.388,1.755.264-.075-.253-.388-.457a2.393,2.393,0,0,0-1.41-.35,2.283,2.283,0,0,0-1.34.538c-.307.231-.382.42-.307.468" transform="translate(-74.683 -40.674)" fill="#263238"/>
        <path id="Path_1575" data-name="Path 1575" d="M179.778,93.164a.872.872,0,0,0,.888.84.839.839,0,0,0,.861-.818c0-.008,0-.015,0-.022a.877.877,0,0,0-.888-.834.834.834,0,0,0-.861.807c0,.009,0,.018,0,.027" transform="translate(-83.018 -42.636)" fill="#263238"/>
        <path id="Path_1576" data-name="Path 1576" d="M178.89,88.882c.118.108.753-.414,1.7-.463s1.658.382,1.755.264-.075-.253-.388-.457a2.393,2.393,0,0,0-1.41-.35,2.282,2.282,0,0,0-1.34.511c-.28.237-.382.447-.312.5" transform="translate(-82.598 -40.577)" fill="#263238"/>
        <path id="Path_1577" data-name="Path 1577" d="M171.261,96.768a6.205,6.205,0,0,0-1.545-.194c-.237,0-.468-.048-.538-.21a1.182,1.182,0,0,1,.118-.721c.2-.592.4-1.216.614-1.868a31.1,31.1,0,0,0,1.34-4.876,31.514,31.514,0,0,0-1.728,4.758q-.307.979-.581,1.873a1.42,1.42,0,0,0-.075.953.6.6,0,0,0,.414.328,1.434,1.434,0,0,0,.409.038,6.127,6.127,0,0,0,1.572-.081" transform="translate(-77.956 -41.052)" fill="#263238"/>
        <path id="Path_1578" data-name="Path 1578" d="M176.111,104.46c-.151,0-.1,1.023-.936,1.792s-1.927.721-1.927.861.253.188.71.178a2.584,2.584,0,0,0,1.615-.662,2.213,2.213,0,0,0,.721-1.5c.016-.431-.113-.678-.183-.667" transform="translate(-80.003 -48.237)" fill="#263238"/>
        <path id="Path_1579" data-name="Path 1579" d="M178.622,81.955c.108.253,1.039.081,2.153.156s2.018.323,2.153.086c.059-.113-.108-.344-.479-.571a3.543,3.543,0,0,0-1.615-.474,3.605,3.605,0,0,0-1.663.285c-.4.188-.6.4-.549.517" transform="translate(-82.481 -37.471)" fill="#263238"/>
        <path id="Path_1580" data-name="Path 1580" d="M162.133,83.2c.178.2.813-.048,1.615-.1s1.448.065,1.588-.167c.059-.113-.054-.318-.355-.506a2.319,2.319,0,0,0-2.562.215c-.285.242-.366.463-.285.56" transform="translate(-74.856 -37.928)" fill="#263238"/>
        <path id="Path_1581" data-name="Path 1581" d="M197.848,94.976c.1-.054,4.144-1.469,4.236,2.723s-4.139,3.418-4.15,3.3-.086-6.023-.086-6.023" transform="translate(-91.363 -43.732)" fill="#ffbe9d"/>
        <path id="Path_1582" data-name="Path 1582" d="M200.316,100.571a1.534,1.534,0,0,0,.2.1.732.732,0,0,0,.538,0,1.79,1.79,0,0,0,.8-1.615,2.455,2.455,0,0,0-.226-1.039.856.856,0,0,0-.565-.538.377.377,0,0,0-.425.21c-.054.118-.027.2-.048.21s-.091-.065-.059-.242a.456.456,0,0,1,.156-.264.54.54,0,0,1,.4-.118,1.029,1.029,0,0,1,.775.635,2.411,2.411,0,0,1,.312,1.109,1.886,1.886,0,0,1-1.028,1.835.765.765,0,0,1-.667-.1c-.156-.086-.178-.183-.167-.188" transform="translate(-92.501 -44.919)" fill="#eb996e"/>
        <path id="Path_1583" data-name="Path 1583" d="M163.82,68.191c-.684-.366,1.324-2.589,2.982-3.369,2.508-1.173,6.351-1.927,8.687-1.3a10.1,10.1,0,0,1,6.588,4.65,16.464,16.464,0,0,1,1.959,8.4,4.977,4.977,0,0,1-.538,2.567c-.576.937-1.7,1.534-1.615,2.815a1.76,1.76,0,0,1-.42,1.286c-.759.823-1.706.07-2.153-.694a12.072,12.072,0,0,1-1.179-5.474,12.264,12.264,0,0,1,.215-3.994c.194-.7.538-1.367.673-2.078a2.486,2.486,0,0,0-.323-2.088,2.306,2.306,0,0,0-.344-.339A4.376,4.376,0,0,0,174,67.8c-2.352.867-6.373,2.153-7.438,1.378a6.422,6.422,0,0,1-1.9-1.878Z" transform="translate(-75.586 -29.229)" fill="#263238"/>
        <path id="Path_1584" data-name="Path 1584" d="M176.89,62.241a9.2,9.2,0,0,0-7.078.484,4.8,4.8,0,0,0-2.5,2.815,2.725,2.725,0,0,0,1.421,3.229l.081.054a6.409,6.409,0,0,0,4.736-.318c1.5-.538,2.815-1.485,4.306-2.013a8.466,8.466,0,0,1,4.984-.21,13.865,13.865,0,0,0-5.953-4.042" transform="translate(-77.219 -28.516)" fill="#263238"/>
        <path id="Path_1585" data-name="Path 1585" d="M193.171,68.586c-.038.032-.377-.371-1.076-.84a6.1,6.1,0,0,0-1.276-.684,3.913,3.913,0,0,0-1.706-.285,5.723,5.723,0,0,0-2.923,1.206c-.651.538-.953.947-.99.915s.043-.129.183-.323a4.507,4.507,0,0,1,.678-.743,5.438,5.438,0,0,1,3.052-1.319,3.977,3.977,0,0,1,1.825.323,5.68,5.68,0,0,1,1.3.754,3.226,3.226,0,0,1,.937,1" transform="translate(-85.518 -30.712)" fill="#455a64"/>
        <path id="Path_1586" data-name="Path 1586" d="M196.16,73.13a3.4,3.4,0,0,1-.318,1.2,8.7,8.7,0,0,1-3.913,4.408,3.571,3.571,0,0,1-1.152.463,10.819,10.819,0,0,0,5.382-6.071" transform="translate(-88.098 -33.77)" fill="#455a64"/>
        <path id="Path_1587" data-name="Path 1587" d="M197.651,74.4a1.554,1.554,0,0,1,0,.474,8.046,8.046,0,0,1-.183,1.292,8.766,8.766,0,0,1-5.452,6.254,7.855,7.855,0,0,1-1.254.355,1.5,1.5,0,0,1-.474.048c0-.048.657-.167,1.652-.592a9.218,9.218,0,0,0,5.334-6.114c.3-1.044.323-1.722.377-1.717" transform="translate(-87.872 -34.357)" fill="#455a64"/>
        <path id="Path_1588" data-name="Path 1588" d="M171.087,61.95a10.285,10.285,0,0,1-1.114.42,9.353,9.353,0,0,0-2.427,1.437,9.14,9.14,0,0,0-1.873,2.11c-.4.614-.581,1.028-.624,1.012a3.148,3.148,0,0,1,.452-1.114,7.892,7.892,0,0,1,1.868-2.223,7.8,7.8,0,0,1,2.54-1.4,3.337,3.337,0,0,1,1.179-.237" transform="translate(-76.216 -28.607)" fill="#455a64"/>
        <path id="Path_1589" data-name="Path 1589" d="M115.155,176.37l-5.684,11.383a8.279,8.279,0,0,0,7.411,11.975l16.227-.942.71-7.406L121.473,188.4l4.677-8.848Z" transform="translate(-50.15 -81.444)" fill="#ffbe9d"/>
        <path id="Path_1590" data-name="Path 1590" d="M148.1,202.187h3.175s7.169-2.589,8.644-2.341c1.329.221,6.189,3.45,7.142,4.09a.634.634,0,0,1,.231.3,1.044,1.044,0,0,1-.581,1.324l-.1.038.043.145a1.742,1.742,0,0,1,.075.581.7.7,0,0,1-1.3.3l.183.328a.822.822,0,0,1,.1.436v.3a.791.791,0,0,1-1.372.5c-.619-.678-1.948-2.04-2.853-2.191a21.442,21.442,0,0,0-2.939-.145.985.985,0,0,0-.926.635,47.266,47.266,0,0,1,5.576,2.691,1.394,1.394,0,0,1,.764,1.076c.048.409-.156.845-.974.651a36.151,36.151,0,0,1-4.9-1.857,3.639,3.639,0,0,0-2.691.28c-1.48,1.044-2.153,1.426-3.434,1.006a10.929,10.929,0,0,1-2.207-1.028l-2.508-.248s-2.384-5.953.856-6.862" transform="translate(-67.604 -92.277)" fill="#ffbe9d"/>
        <path id="Path_1591" data-name="Path 1591" d="M167.148,206.2q.668-.128,1.346-.188a6.965,6.965,0,0,1,5.8,2.476c.538.64.77,1.114.8,1.1a2.028,2.028,0,0,0-.161-.334,5.708,5.708,0,0,0-.538-.829,6.722,6.722,0,0,0-5.872-2.508,5.52,5.52,0,0,0-.99.167,1.616,1.616,0,0,0-.377.113" transform="translate(-77.186 -95.075)" fill="#eb996e"/>
        <path id="Path_1592" data-name="Path 1592" d="M168.557,202.933a5.621,5.621,0,0,1,1.4-.248,6.1,6.1,0,0,1,3.262.926,13.17,13.17,0,0,1,2.627,2.223l.721.764a1.729,1.729,0,0,0,.274.269,2.254,2.254,0,0,0-.237-.307c-.156-.188-.388-.463-.689-.791a12.058,12.058,0,0,0-2.627-2.277,6,6,0,0,0-3.337-.9,4,4,0,0,0-1.039.194c-.118.032-.2.081-.269.1s-.091.043-.086.048" transform="translate(-77.836 -93.55)" fill="#eb996e"/>
        <path id="Path_1593" data-name="Path 1593" d="M124.765,198.464c0,.048-.565-.043-1.459-.038a11.3,11.3,0,0,0-3.423.608,10.3,10.3,0,0,0-3.068,1.615c-.7.538-1.033,1.006-1.076.98s.059-.135.2-.344a5.158,5.158,0,0,1,.743-.786,9.215,9.215,0,0,1,3.1-1.744,9.841,9.841,0,0,1,3.515-.538,6.894,6.894,0,0,1,1.076.124,1.331,1.331,0,0,1,.388.124" transform="translate(-53.442 -91.531)" fill="#eb996e"/>
        <path id="Path_1594" data-name="Path 1594" d="M233.316,172.73s3.547,10.226,7.374,19.693a4.456,4.456,0,0,1,.183.592,4.155,4.155,0,0,1-4.117,4.968H214.4v-7.2l13.768-2.923L223.182,176.8Z" transform="translate(-99.005 -79.764)" fill="#ffbe9d"/>
        <path id="Path_1595" data-name="Path 1595" d="M206.526,202.607h-3.175s-7.169-2.589-8.644-2.341c-1.329.221-6.19,3.45-7.142,4.09a.587.587,0,0,0-.231.291,1.044,1.044,0,0,0,.581,1.324l.1.043-.048.145a1.74,1.74,0,0,0-.07.581.7.7,0,0,0,1.3.3l-.183.323a.782.782,0,0,0-.1.436v.3a.788.788,0,0,0,1.372.5c.619-.678,1.948-2.034,2.847-2.185a20.7,20.7,0,0,1,2.944-.145,1,1,0,0,1,.926.635,47.269,47.269,0,0,0-5.576,2.691,1.411,1.411,0,0,0-.77,1.076c-.048.414.161.845.98.657a36.156,36.156,0,0,0,4.9-1.857,3.626,3.626,0,0,1,2.691.274c1.485,1.05,2.153,1.432,3.434,1.006a10.7,10.7,0,0,0,2.212-1.023l2.508-.253s2.379-5.953-.861-6.862" transform="translate(-86.477 -92.471)" fill="#ffbe9d"/>
        <path id="Path_1596" data-name="Path 1596" d="M198.647,206.594q-.668-.128-1.346-.188a6.948,6.948,0,0,0-5.8,2.476c-.538.64-.77,1.114-.8,1.076a1.618,1.618,0,0,1,.161-.328,5.913,5.913,0,0,1,.538-.834,6.776,6.776,0,0,1,5.877-2.508,6,6,0,0,1,.99.172,1.383,1.383,0,0,1,.371.135" transform="translate(-88.065 -95.248)" fill="#eb996e"/>
        <path id="Path_1597" data-name="Path 1597" d="M196.941,203.347a5.9,5.9,0,0,0-1.4-.242,6.131,6.131,0,0,0-3.256.92,13.216,13.216,0,0,0-2.632,2.223l-.716.77a2.759,2.759,0,0,1-.274.269,1.916,1.916,0,0,1,.231-.307c.161-.188.393-.463.689-.8a12.086,12.086,0,0,1,2.632-2.271,5.952,5.952,0,0,1,3.332-.9,3.835,3.835,0,0,1,1.044.194,1.583,1.583,0,0,1,.264.1Z" transform="translate(-87.119 -93.744)" fill="#eb996e"/>
        <path id="Path_1598" data-name="Path 1598" d="M248.3,202.621c-.027.038-.463-.307-1.227-.743a11.437,11.437,0,0,0-6.6-1.5c-.883.065-1.421.188-1.432.14a1.123,1.123,0,0,1,.366-.135,7.415,7.415,0,0,1,1.044-.2,10.142,10.142,0,0,1,6.728,1.523,7.189,7.189,0,0,1,.856.635c.183.167.285.264.269.28" transform="translate(-110.383 -92.405)" fill="#eb996e"/>
        <rect id="Rectangle_698" data-name="Rectangle 698" width="189.873" height="3.622" transform="translate(4.972 118.5)" fill="#455a64"/>
        <path id="Path_1599" data-name="Path 1599" d="M21.337,324.6h-2.6V226.45H24.3Z" transform="translate(-8.653 -104.57)" fill="#455a64"/>
        <path id="Path_1600" data-name="Path 1600" d="M83.472,324.611H80.878V226.58h5.56Z" transform="translate(-37.348 -104.631)" fill="#263238"/>
        <path id="Path_1601" data-name="Path 1601" d="M285.887,324.513h-2.6V226.6h5.56Z" transform="translate(-130.817 -104.64)" fill="#263238"/>
        <path id="Path_1602" data-name="Path 1602" d="M337.9,324.583h-2.6V226.52h5.56Z" transform="translate(-154.834 -104.603)" fill="#455a64"/>
        <path id="Path_1603" data-name="Path 1603" d="M183.671,197.371H150.328a1.776,1.776,0,0,1-1.771-1.69l-1-22.955a1.771,1.771,0,0,1,1.694-1.844l.077,0h35.28a1.776,1.776,0,0,1,1.772,1.78c0,.02,0,.04,0,.06l-.937,22.955a1.765,1.765,0,0,1-1.771,1.7" transform="translate(-68.138 -78.909)" fill="#e0e0e0"/>
        <path id="Path_1604" data-name="Path 1604" d="M183.877,194.675a1.825,1.825,0,1,1-1.825-1.825,1.825,1.825,0,0,1,1.825,1.825" transform="translate(-83.226 -89.055)" fill="#fff"/>
        <path id="Path_1605" data-name="Path 1605" d="M326.816,143.688a1.383,1.383,0,1,1,2.745.339c0,.025-.007.051-.011.076l-6.06,37h-2.772Z" transform="translate(-148.102 -65.792)" fill="#263238"/>
        <path id="Path_1606" data-name="Path 1606" d="M313.427,122.029,288.432,94.58l-.183.3-1.211,2.008L311.376,123.9a1.383,1.383,0,0,0,2.051-1.857Z" transform="translate(-132.549 -43.675)" fill="#263238"/>
        <path id="Path_1607" data-name="Path 1607" d="M332.629,146.233a.264.264,0,0,1-.032-.172.63.63,0,0,1,.226-.425.742.742,0,0,1,.727-.14.775.775,0,0,1,0,1.469.758.758,0,0,1-.727-.135.63.63,0,0,1-.226-.425c0-.113,0-.172.032-.172a.974.974,0,0,0,.318.441.536.536,0,1,0,0-.883c-.253.183-.253.452-.318.441" transform="translate(-153.586 -67.168)" fill="#455a64"/>
        <path id="Path_1608" data-name="Path 1608" d="M332.495,142.61a3.6,3.6,0,0,1,.753.689,10.455,10.455,0,0,1,.753.829,1.727,1.727,0,0,1,.393,1.362,1.394,1.394,0,0,1-1.017,1,1.5,1.5,0,0,1-1.152-.161,1.764,1.764,0,0,1-.737-.721c.032-.043.3.269.834.538a1.31,1.31,0,0,0,.98.091,1.157,1.157,0,0,0,.818-.813,1.544,1.544,0,0,0-.328-1.152c-.231-.323-.5-.6-.689-.845a3.737,3.737,0,0,1-.608-.818" transform="translate(-153.075 -65.855)" fill="#455a64"/>
        <path id="Path_1609" data-name="Path 1609" d="M300.338,217.212h22.756s-2.906-3.622-10.479-3.622c-7.056,0-11.26,2.072-12.277,3.622" transform="translate(-138.691 -98.632)" fill="#263238"/>
        <path id="Path_1610" data-name="Path 1610" d="M288.609,84.046l1.157-1.738-1.432-1.1-1.227,1.749Z" transform="translate(-132.581 -37.501)" fill="#263238"/>
        <path id="Path_1611" data-name="Path 1611" d="M275.178,85.321l-4.984-3.611-4.779,5.754c-8.294,1.335-11.636,6.55-11.636,6.55l14.844,11.367c5.081-5.614,2.691-13.638,2.691-13.638Z" transform="translate(-117.19 -37.732)" fill="#22c98c"/>
        <path id="Path_1612" data-name="Path 1612" d="M281.281,96.679a23.944,23.944,0,0,1-3.025-2.024A24.351,24.351,0,0,1,275.4,92.4a23.945,23.945,0,0,1,3.025,2.024,23.178,23.178,0,0,1,2.858,2.255" transform="translate(-127.174 -42.669)" fill="#263238"/>
        <path id="Path_1613" data-name="Path 1613" d="M242.762,111.917c.032.07-2.508,1.319-5.673,2.788s-5.759,2.6-5.791,2.53,2.508-1.319,5.673-2.788,5.759-2.6,5.791-2.53" transform="translate(-106.809 -51.68)" fill="#263238"/>
        <path id="Path_1614" data-name="Path 1614" d="M255.572,121.119c.059.054-1.9,2.153-4.365,4.688s-4.516,4.548-4.569,4.494,1.9-2.153,4.365-4.688,4.516-4.548,4.569-4.494" transform="translate(-113.892 -55.93)" fill="#263238"/>
        <path id="Path_1615" data-name="Path 1615" d="M270.242,138.99c-.075,0,.081-2.551.355-5.684a51.421,51.421,0,0,1,.635-5.657,56.182,56.182,0,0,1-.355,5.684c-.275,3.132-.56,5.662-.635,5.657" transform="translate(-124.784 -58.946)" fill="#263238"/>
        <rect id="Rectangle_699" data-name="Rectangle 699" width="14.457" height="11.555" transform="translate(45.472 0.439) rotate(-1.69)" fill="#ebebeb"/>
        <path id="Path_1616" data-name="Path 1616" d="M98.893.011h-.274l-.786.032-2.955.1L84.442.463l.038-.038c.1,3.439.221,7.379.35,11.55l-.043-.038,14.446-.42-.032.038c-.1-3.482-.178-6.367-.231-8.38,0-1.012-.043-1.8-.059-2.341V.818c0,.538.043,1.329.075,2.336.065,2.018.156,4.909.269,8.4v.032h-.038l-14.446.431h-.043V11.97C84.6,7.8,84.49,3.854,84.388.42V.382h.038L94.883.1,97.833.016h1.044Z" transform="translate(-38.969)" fill="#263238"/>
        <rect id="Rectangle_700" data-name="Rectangle 700" width="13.439" height="10.102" transform="matrix(1, -0.029, 0.029, 1, 45.994, 1.156)" fill="#ff725e"/>
        <g id="Group_688" data-name="Group 688" transform="translate(46.291 4.833)" opacity="0.3">
          <g id="Group_687" data-name="Group 687">
            <g id="Group_686" data-name="Group 686" clip-path="url(#clip-path-8)">
              <path id="Path_1617" data-name="Path 1617" d="M86.008,15.4l4.51-6.416,3.019,3.843,1.911-2.158L99.442,15Z" transform="translate(-86.008 -8.98)"/>
            </g>
          </g>
        </g>
        <g id="Group_691" data-name="Group 691" transform="translate(52.766 2.864)" opacity="0.3">
          <g id="Group_690" data-name="Group 690">
            <g id="Group_689" data-name="Group 689" clip-path="url(#clip-path-9)">
              <path id="Path_1618" data-name="Path 1618" d="M100.191,6.4a1.076,1.076,0,1,1,0-.047c0,.016,0,.032,0,.047" transform="translate(-98.038 -5.322)"/>
            </g>
          </g>
        </g>
        <rect id="Rectangle_703" data-name="Rectangle 703" width="21.841" height="17.46" transform="translate(31.869 11.467) rotate(-9.93)" fill="#ebebeb"/>
        <path id="Path_1619" data-name="Path 1619" d="M80.68,14.268h-.1l-.3.054-1.168.21-4.4.786-15.533,2.75L59.221,18c.9,5.118,1.927,10.985,3.019,17.2l-.075-.054,21.529-3.768-.043.059c-.893-5.183-1.615-9.473-2.153-12.481-.258-1.5-.457-2.691-.6-3.488-.07-.4-.118-.71-.156-.92L80.7,14.23a1.25,1.25,0,0,0,.059.307c.059.2.091.538.167.91.14.8.35,1.975.619,3.472l2.217,12.5v.048H83.7L62.176,35.237h-.059v-.059C61.04,28.966,60,23.1,59.108,17.981v-.059h.059l15.576-2.691,4.392-.754,1.163-.2.3-.048Z" transform="translate(-27.295 -6.571)" fill="#263238"/>
        <rect id="Rectangle_704" data-name="Rectangle 704" width="20.307" height="15.264" transform="translate(33.844 11.8) rotate(-9.929)" fill="#3995db"/>
        <g id="Group_694" data-name="Group 694" transform="translate(35.435 16.879)" opacity="0.4">
          <g id="Group_693" data-name="Group 693">
            <g id="Group_692" data-name="Group 692" clip-path="url(#clip-path-10)">
              <path id="Path_1620" data-name="Path 1620" d="M65.838,41.931l5.35-10.571,5.35,5.092,2.39-3.638,6.911,5.614Z" transform="translate(-65.838 -31.36)"/>
            </g>
          </g>
        </g>
        <g id="Group_697" data-name="Group 697" transform="translate(43.546 13.337)" opacity="0.4">
          <g id="Group_696" data-name="Group 696">
            <g id="Group_695" data-name="Group 695" clip-path="url(#clip-path-11)">
              <path id="Path_1621" data-name="Path 1621" d="M84.111,26.1a1.615,1.615,0,1,1-1.883-1.292l.032-.005a1.615,1.615,0,0,1,1.851,1.3" transform="translate(-80.908 -24.779)"/>
            </g>
          </g>
        </g>
        <path id="Path_1622" data-name="Path 1622" d="M16.313,68.854l3.358,12.88a.893.893,0,0,0,1.039.657l23.472-4.6a.893.893,0,0,0,.705-1.048h0L42.923,66.588a.9.9,0,0,0-1.065-.707l-.011,0L27.433,68.8a.9.9,0,0,1-.673-.129L23.767,66.69a.915.915,0,0,0-.667-.135L17.013,67.75a.894.894,0,0,0-.713,1.043c0,.02.008.04.013.06" transform="translate(-7.52 -30.414)" fill="#ff725e"/>
        <rect id="Rectangle_707" data-name="Rectangle 707" width="26.13" height="15.614" transform="matrix(0.981, -0.192, 0.192, 0.981, 9.268, 38.768)" fill="#f5f5f5"/>
        <path id="Path_1623" data-name="Path 1623" d="M13.9,69.96l5.086,15.608a.587.587,0,0,0,.662.388l24.989-4.892a.576.576,0,0,0,.463-.635L43.228,64.2a.575.575,0,0,0-.637-.508l-.047.007L14.358,69.212a.581.581,0,0,0-.482.666.538.538,0,0,0,.019.082" transform="translate(-6.404 -29.411)" fill="#ff725e"/>
        <g id="Group_700" data-name="Group 700" transform="translate(7.464 34.279)" opacity="0.3">
          <g id="Group_699" data-name="Group 699">
            <g id="Group_698" data-name="Group 698" clip-path="url(#clip-path-12)">
              <path id="Path_1624" data-name="Path 1624" d="M13.9,69.96l5.086,15.608a.587.587,0,0,0,.662.388l24.989-4.892a.576.576,0,0,0,.463-.635L43.228,64.2a.575.575,0,0,0-.637-.508l-.047.007L14.358,69.212a.581.581,0,0,0-.482.666.538.538,0,0,0,.019.082" transform="translate(-13.868 -63.69)"/>
            </g>
          </g>
        </g>
        <path id="Path_1625" data-name="Path 1625" d="M17.638,32.083.883,25.952a1.26,1.26,0,0,1-.608-1.615l4.16-10.883a1.243,1.243,0,0,1,1.475-.834L22.686,18.9c.587.221.651.85.431,1.437l-4.36,11.233a.867.867,0,0,1-1.112.514l-.007,0" transform="translate(-0.082 -5.812)" fill="#fafafa"/>
        <path id="Path_1626" data-name="Path 1626" d="M17.389,31.928a1.269,1.269,0,0,0,.657,0,1.194,1.194,0,0,0,.635-.457,1.941,1.941,0,0,0,.21-.463c.07-.172.135-.361.21-.538.6-1.582,1.453-3.848,2.5-6.647.269-.705.538-1.437.834-2.2l.447-1.173a3.827,3.827,0,0,0,.2-.592A1.076,1.076,0,0,0,23,19.269a.988.988,0,0,0-.4-.452,5.044,5.044,0,0,0-.614-.242l-1.3-.474-2.723-1L5.849,12.676a1.076,1.076,0,0,0-1.292.538l-.6,1.561L2.776,17.853c-.743,2.029-1.518,3.972-2.228,5.824-.091.231-.178.463-.264.689a1.08,1.08,0,0,0-.075.657.988.988,0,0,0,.323.538,1.706,1.706,0,0,0,.6.291L3.7,26.8l4.6,1.7,6.652,2.5,1.808.684.463.183a.976.976,0,0,1,.161.07.605.605,0,0,1-.167-.048l-.474-.161-1.792-.646L8.271,28.666,3.648,26.992l-2.567-.931a1.9,1.9,0,0,1-.662-.328,1.193,1.193,0,0,1-.388-.662A1.29,1.29,0,0,1,.1,24.3c.086-.231.172-.463.264-.694l2.212-5.818c.382-1.006.775-2.034,1.173-3.073.2-.538.4-1.076.608-1.577a1.27,1.27,0,0,1,1.572-.678l12.11,4.44,2.691,1,1.3.479a4.985,4.985,0,0,1,.646.264,1.183,1.183,0,0,1,.468.538,1.285,1.285,0,0,1,.091.694,3.869,3.869,0,0,1-.21.624c-.156.4-.307.786-.452,1.168-.3.764-.576,1.5-.85,2.2l-2.567,6.62c-.075.2-.151.382-.215.538a2.034,2.034,0,0,1-.231.474,1.253,1.253,0,0,1-.678.463,1.115,1.115,0,0,1-.506,0,.482.482,0,0,1-.135-.032" transform="translate(0 -5.722)" fill="#ff725e"/>
        <path id="Path_1627" data-name="Path 1627" d="M20.415,27.205l1.744,2.185L19.37,29.9l-2.783.506,1.039-2.691,1.039-2.691Z" transform="translate(-7.66 -11.554)" fill="#ff725e"/>
        <path id="Path_1628" data-name="Path 1628" d="M48.478,185.15c.078,0,.14.3.14.673s-.062.673-.14.673-.14-.3-.14-.673.062-.673.14-.673" transform="translate(-22.322 -85.499)" fill="#263238"/>
        <path id="Path_1629" data-name="Path 1629" d="M48.478,196.326a8.293,8.293,0,0,1,0-3.036,8.293,8.293,0,0,1,0,3.036" transform="translate(-22.321 -89.258)" fill="#263238"/>
        <path id="Path_1630" data-name="Path 1630" d="M49.823,205.9a3.4,3.4,0,0,1-1.346.14l-.14-.14v-.974c.027-.242.065-.393.1-.393s.07.151.1.393a2.111,2.111,0,0,0,.032.431v.506l-.14-.14a3.29,3.29,0,0,1,1.394.178" transform="translate(-22.322 -94.448)" fill="#263238"/>
        <path id="Path_1631" data-name="Path 1631" d="M58.82,206.935a3.416,3.416,0,0,1-1.351.14,3.416,3.416,0,0,1-1.351-.14,3.3,3.3,0,0,1,1.351-.14,3.3,3.3,0,0,1,1.351.14" transform="translate(-25.914 -95.486)" fill="#263238"/>
        <path id="Path_1632" data-name="Path 1632" d="M68.879,206.951a6.589,6.589,0,0,1-2.691,0,6.588,6.588,0,0,1,2.691,0" transform="translate(-30.564 -95.502)" fill="#263238"/>
        <path id="Path_1633" data-name="Path 1633" d="M78.919,206.951a6.589,6.589,0,0,1-2.691,0,6.588,6.588,0,0,1,2.691,0" transform="translate(-35.201 -95.502)" fill="#263238"/>
        <path id="Path_1634" data-name="Path 1634" d="M88.969,206.951a6.589,6.589,0,0,1-2.691,0,6.588,6.588,0,0,1,2.691,0" transform="translate(-39.842 -95.502)" fill="#263238"/>
        <path id="Path_1635" data-name="Path 1635" d="M99.019,206.951a6.608,6.608,0,0,1-2.691,0,6.607,6.607,0,0,1,2.691,0" transform="translate(-44.483 -95.502)" fill="#263238"/>
        <path id="Path_1636" data-name="Path 1636" d="M109.059,206.951a6.589,6.589,0,0,1-2.691,0,6.588,6.588,0,0,1,2.691,0" transform="translate(-49.119 -95.502)" fill="#263238"/>
        <path id="Path_1637" data-name="Path 1637" d="M119.109,206.951a6.589,6.589,0,0,1-2.691,0,6.588,6.588,0,0,1,2.691,0" transform="translate(-53.76 -95.502)" fill="#263238"/>
        <path id="Path_1638" data-name="Path 1638" d="M129.149,206.951a6.589,6.589,0,0,1-2.691,0,6.588,6.588,0,0,1,2.691,0" transform="translate(-58.396 -95.502)" fill="#263238"/>
        <path id="Path_1639" data-name="Path 1639" d="M139.2,206.951a6.589,6.589,0,0,1-2.691,0,6.588,6.588,0,0,1,2.691,0" transform="translate(-63.037 -95.502)" fill="#263238"/>
        <path id="Path_1640" data-name="Path 1640" d="M147.874,206.95c0,.075-.3.14-.673.14s-.673-.065-.673-.14.3-.14.673-.14.673.059.673.14" transform="translate(-67.664 -95.501)" fill="#263238"/>
        <path id="Path_1641" data-name="Path 1641" d="M6.923,96.92H45.367a3.655,3.655,0,0,1,3.655,3.654v38.445a3.654,3.654,0,0,1-3.655,3.654H6.923a3.654,3.654,0,0,1-3.655-3.654V100.575A3.655,3.655,0,0,1,6.923,96.92" transform="translate(-1.509 -44.756)" fill="#ffbf5e"/>
        <path id="Path_1642" data-name="Path 1642" d="M43.885,142.808a4.932,4.932,0,0,0-2.637-9.5,7.068,7.068,0,0,0-6.916-7.465,7.062,7.062,0,0,0-6.507,7.826,4.516,4.516,0,0,0-.323,9.026Z" transform="translate(-10.689 -58.109)" fill="#fff"/>
      </g>
    </g>
  </g>
</svg>
