<svg id="Group_723" data-name="Group 723" xmlns="http://www.w3.org/2000/svg" xmlns:xlink="http://www.w3.org/1999/xlink" width="298.498" height="218.478" viewBox="0 0 298.498 218.478">
  <defs>
    <clipPath id="clip-path">
      <rect id="Rectangle_728" data-name="Rectangle 728" width="298.498" height="218.478" fill="none"/>
    </clipPath>
    <clipPath id="clip-path-3">
      <rect id="Rectangle_711" data-name="Rectangle 711" width="20.07" height="10.018" fill="none"/>
    </clipPath>
    <clipPath id="clip-path-4">
      <rect id="Rectangle_712" data-name="Rectangle 712" width="2.254" height="2.225" fill="none"/>
    </clipPath>
    <clipPath id="clip-path-5">
      <rect id="Rectangle_713" data-name="Rectangle 713" width="2.199" height="2.175" fill="none"/>
    </clipPath>
    <clipPath id="clip-path-6">
      <rect id="Rectangle_714" data-name="Rectangle 714" width="28.33" height="2.348" fill="none"/>
    </clipPath>
    <clipPath id="clip-path-7">
      <rect id="Rectangle_715" data-name="Rectangle 715" width="14.025" height="2.598" fill="none"/>
    </clipPath>
  </defs>
  <g id="Group_722" data-name="Group 722" clip-path="url(#clip-path)">
    <g id="Group_721" data-name="Group 721">
      <g id="Group_720" data-name="Group 720" clip-path="url(#clip-path)">
        <path id="Path_1643" data-name="Path 1643" d="M301.252,304.528c0,.092-65.637.171-146.595.171S8.05,304.62,8.05,304.528s65.624-.171,146.608-.171,146.595.072,146.595.171" transform="translate(-2.755 -104.146)" fill="#263238"/>
        <path id="Path_1644" data-name="Path 1644" d="M128.623,126.394,145.8,184.368a6.071,6.071,0,0,0,5.815,4.348l69.729.191a6.453,6.453,0,0,0,6.468-6.438c0-.117,0-.234-.009-.351a6.453,6.453,0,0,0-6.44-6.1H194.707l-21.353-59.486H135.977a7.669,7.669,0,0,0-7.354,9.867" transform="translate(-43.902 -39.874)" fill="#455a64"/>
        <path id="Path_1645" data-name="Path 1645" d="M201.953,214.07c0,.138-7.111.243-15.88.243s-15.873-.105-15.873-.243,7.1-.243,15.873-.243,15.88.105,15.88.243" transform="translate(-58.239 -73.168)" fill="#263238"/>
        <path id="Path_1646" data-name="Path 1646" d="M136.589,119.307c.125-.039,4.874,13.847,10.6,31.023s10.262,31.135,10.137,31.174-4.874-13.814-10.6-31.023-10.269-31.128-10.137-31.174" transform="translate(-46.737 -40.825)" fill="#263238"/>
        <path id="Path_1647" data-name="Path 1647" d="M211.849,277.807l-4.25-.1V226.267h4.25Z" transform="translate(-71.037 -77.425)" fill="#455a64"/>
        <path id="Path_1648" data-name="Path 1648" d="M180.77,301.017h39.555l-17.919-6.23h-4.25Z" transform="translate(-61.856 -100.871)" fill="#455a64"/>
        <path id="Path_1649" data-name="Path 1649" d="M165.56,85.768l6.545,32.7-1.171,24.5,43.995-7.315-1.723-21.445-.053-17.761,10.788,20.905,8.394-16.228L216.962,73.27A25.965,25.965,0,0,0,206.9,66.757a20.639,20.639,0,0,0-6.308-1.21,25.224,25.224,0,0,1-15.228,0c-.618.079-1.474.164-2.559.289h-.2a19.452,19.452,0,0,0-16.978,18.287Z" transform="translate(-56.652 -22.429)" fill="#22c98c"/>
        <path id="Path_1650" data-name="Path 1650" d="M181.076,66S163,66.135,160.763,85.225l-.3,14.012,15.564-.132Z" transform="translate(-54.907 -22.583)" fill="#22c98c"/>
        <path id="Path_1651" data-name="Path 1651" d="M224.416,103.2c0,.138-14.222.25-31.766.25s-31.74-.118-31.74-.25,14.215-.243,31.766-.243,31.74.112,31.74.243" transform="translate(-55.061 -35.23)" fill="#fafafa"/>
        <path id="Path_1652" data-name="Path 1652" d="M224.4,107.807c0,.132-14.222.243-31.766.243s-31.766-.112-31.766-.243,14.215-.25,31.766-.25,31.766.112,31.766.25" transform="translate(-55.047 -36.804)" fill="#fafafa"/>
        <path id="Path_1653" data-name="Path 1653" d="M223.4,99.4c0,.138-13.992.25-31.253.25s-31.24-.118-31.24-.25,13.992-.243,31.259-.243,31.233.105,31.233.243" transform="translate(-55.061 -33.93)" fill="#fafafa"/>
        <path id="Path_1654" data-name="Path 1654" d="M237.541,126.322c-.138,0-.079-7.743.132-17.281s.493-17.274.625-17.274.079,7.743-.132,17.281-.493,17.274-.625,17.274" transform="translate(-81.257 -31.401)" fill="#263238"/>
        <path id="Path_1655" data-name="Path 1655" d="M228.088,125.217s8.552.612,10.091,2.875,3.888,8.7,3,8.749a2.42,2.42,0,0,1-1.539-.48L237.3,132.2s.375,4.013-1.026,4.092-8.361,1.474-8.361,1.474Z" transform="translate(-77.987 -42.847)" fill="#ffbe9d"/>
        <path id="Path_1656" data-name="Path 1656" d="M160.453,110.481l-.033,22.043a8.373,8.373,0,0,0,10.144,7.729l34.476-7.1-.072-14.137-29.753,5.73-.395-14.965Z" transform="translate(-54.893 -37.564)" fill="#22c98c"/>
        <path id="Path_1657" data-name="Path 1657" d="M187.721,134.878a2.935,2.935,0,0,1,.454-.125l1.316-.3,5.065-1.072,17.965-3.69-.178.211V115.38l.289.243-6.065,1.164-23.681,4.506-.257.053v-.21c.224-6.578.414-12.025.546-15.893.079-1.881.138-3.375.184-4.44,0-.48.046-.868.066-1.164a1.792,1.792,0,0,1,.046-.4,3.144,3.144,0,0,1,0,.4v1.171c0,1.066-.039,2.559-.066,4.44-.092,3.875-.217,9.334-.368,15.893l-.25-.2,23.681-4.6,6.065-1.158.289-.059v15l-.178.033-17.991,3.486-5.092.954-1.349.237a2.262,2.262,0,0,1-.493.053" transform="translate(-62.493 -33.957)" fill="#263238"/>
        <path id="Path_1658" data-name="Path 1658" d="M211.28,65.781a1.649,1.649,0,0,1,.138.322,6.649,6.649,0,0,1,.27.974,7.955,7.955,0,0,1-.164,3.71,9.751,9.751,0,0,1-2.986,4.6,9.3,9.3,0,0,1-6.276,2.375,8.553,8.553,0,0,1-6.2-2.519,8.714,8.714,0,0,1-2.309-4.993,7.8,7.8,0,0,1,.434-3.69,5.117,5.117,0,0,1,.441-.908c.118-.2.184-.3.2-.289s-.211.441-.467,1.263a8.314,8.314,0,0,0-.27,3.579,8.552,8.552,0,0,0,2.289,4.723,8.17,8.17,0,0,0,5.881,2.342,8.96,8.96,0,0,0,5.973-2.217,9.624,9.624,0,0,0,2.96-4.381,8.331,8.331,0,0,0,.3-3.579c-.112-.842-.27-1.3-.217-1.316" transform="translate(-66.277 -22.367)" fill="#263238"/>
        <path id="Path_1659" data-name="Path 1659" d="M222.93,139.384a10.383,10.383,0,0,1,0-2.177c.053-1.316.118-3.184.132-5.223s0-3.888-.072-5.23a10.657,10.657,0,0,1,0-2.177,8.68,8.68,0,0,1,.329,2.158c.125,1.316.224,3.2.21,5.263s-.132,3.907-.27,5.263a8.938,8.938,0,0,1-.329,2.125" transform="translate(-76.263 -42.628)" fill="#fafafa"/>
        <path id="Path_1660" data-name="Path 1660" d="M220.2,139.976a10.77,10.77,0,0,1-.059-2.164c0-1.52.033-3.289.053-5.19V127.4a10.16,10.16,0,0,1,.079-2.158,8.769,8.769,0,0,1,.27,2.144c.086,1.316.158,3.177.145,5.21s-.092,3.875-.2,5.21a8.936,8.936,0,0,1-.289,2.164" transform="translate(-75.32 -42.857)" fill="#fafafa"/>
        <path id="Path_1661" data-name="Path 1661" d="M265.619,280.777l6.512,17.945,9.249,12.7a1.973,1.973,0,0,1-.462,2.752c-.027.02-.055.038-.084.057a1.973,1.973,0,0,1-1.783.151c-3.73-1.546-17.412-7.308-17.82-8.644-.467-1.552-9.3-20.853-9.3-20.853Z" transform="translate(-86.206 -96.077)" fill="#ff725e"/>
        <g id="Group_707" data-name="Group 707" transform="translate(174.585 208.461)" opacity="0.6">
          <g id="Group_706" data-name="Group 706">
            <g id="Group_705" data-name="Group 705" clip-path="url(#clip-path-3)">
              <path id="Path_1662" data-name="Path 1662" d="M285.47,326.593l-20.07-9.7.3.757a2.986,2.986,0,0,0,1.316,1.526c1.645.888,6.249,3.236,16.6,7.585a1.973,1.973,0,0,0,1.835-.171Z" transform="translate(-265.4 -316.897)" fill="#fff"/>
            </g>
          </g>
        </g>
        <g id="Group_710" data-name="Group 710" transform="translate(174.6 201.281)" opacity="0.6">
          <g id="Group_709" data-name="Group 709">
            <g id="Group_708" data-name="Group 708" clip-path="url(#clip-path-4)">
              <path id="Path_1663" data-name="Path 1663" d="M266.8,306.005a1.178,1.178,0,0,1,.862,1.316,1.138,1.138,0,0,1-1.316.868,1.243,1.243,0,0,1-.908-1.408,1.184,1.184,0,0,1,1.454-.75" transform="translate(-265.423 -305.983)" fill="#fff"/>
            </g>
          </g>
        </g>
        <path id="Path_1664" data-name="Path 1664" d="M285.048,320.539a5.862,5.862,0,0,1,1.026-1.973,6.077,6.077,0,0,1,1.895-1.191c-.02-.118-.283-.1-.724,0a3.131,3.131,0,0,0-2.256,2.46c-.059.434.013.7.059.7" transform="translate(-97.51 -108.572)" fill="#263238"/>
        <path id="Path_1665" data-name="Path 1665" d="M288.416,323.88c.112.046.46-.757,1.276-1.381a14.7,14.7,0,0,1,1.651-.895,2.154,2.154,0,0,0-1.908.566c-.921.724-1.131,1.7-1.02,1.71" transform="translate(-98.681 -110.025)" fill="#263238"/>
        <path id="Path_1666" data-name="Path 1666" d="M279.692,316.935a22.5,22.5,0,0,1,1.829-2.256,21.968,21.968,0,0,1,2.4-1.645,4.2,4.2,0,0,0-2.684,1.316,4.445,4.445,0,0,0-1.546,2.585" transform="translate(-95.7 -107.106)" fill="#263238"/>
        <path id="Path_1667" data-name="Path 1667" d="M276,309.85c.086.092.908-.7,2.171-1.25s2.394-.658,2.388-.756a3.858,3.858,0,0,0-2.559.375,4.015,4.015,0,0,0-2,1.631" transform="translate(-94.441 -105.31)" fill="#263238"/>
        <path id="Path_1668" data-name="Path 1668" d="M272.9,301.969a9.4,9.4,0,0,1,2.223-1.362,10.716,10.716,0,0,1,2.592-.322c.026-.118-.27-.2-.77-.276a4.276,4.276,0,0,0-3.618,1.263c-.355.382-.487.664-.428.7" transform="translate(-93.378 -102.646)" fill="#263238"/>
        <path id="Path_1669" data-name="Path 1669" d="M273.776,297.509a1.75,1.75,0,0,0-.243-.658,5,5,0,0,0-1.217-1.552,2.208,2.208,0,0,0-1.276-.658.789.789,0,0,0-.763.487,1.27,1.27,0,0,0,0,.908,2.763,2.763,0,0,0,3.217,1.526,3.2,3.2,0,0,0,2.329-2.7,1.119,1.119,0,0,0-.283-.881.783.783,0,0,0-.9-.092,2.741,2.741,0,0,0-.934,1.066,5.716,5.716,0,0,0-.658,1.855,1.619,1.619,0,0,0,0,.724,8.683,8.683,0,0,1,.96-2.421,2.572,2.572,0,0,1,.835-.908.408.408,0,0,1,.493.046.766.766,0,0,1,.158.585,2.867,2.867,0,0,1-2.046,2.322,2.388,2.388,0,0,1-2.723-1.237.914.914,0,0,1-.053-.658.428.428,0,0,1,.421-.27,2,2,0,0,1,1.085.526,7.321,7.321,0,0,1,1.6,1.993" transform="translate(-92.455 -100.527)" fill="#263238"/>
        <path id="Path_1670" data-name="Path 1670" d="M307.2,273.6l-.559,14.584s14.63,5.473,14.788,8.177l-28.286-.079-.079-22.754Z" transform="translate(-100.28 -93.596)" fill="#ff725e"/>
        <g id="Group_713" data-name="Group 713" transform="translate(196.78 193.313)" opacity="0.6">
          <g id="Group_712" data-name="Group 712">
            <g id="Group_711" data-name="Group 711" clip-path="url(#clip-path-5)">
              <path id="Path_1671" data-name="Path 1671" d="M299.963,293.894a1.157,1.157,0,0,0-.8,1.316,1.112,1.112,0,0,0,1.316.809,1.223,1.223,0,0,0,.842-1.4,1.164,1.164,0,0,0-1.447-.691" transform="translate(-299.141 -293.87)" fill="#fff"/>
            </g>
          </g>
        </g>
        <g id="Group_716" data-name="Group 716" transform="translate(192.833 200.415)" opacity="0.6">
          <g id="Group_715" data-name="Group 715">
            <g id="Group_714" data-name="Group 714" clip-path="url(#clip-path-6)">
              <path id="Path_1672" data-name="Path 1672" d="M293.14,306.936v-2.269l27.207.908s1.256.553,1.112,1.441Z" transform="translate(-293.14 -304.667)" fill="#fff"/>
            </g>
          </g>
        </g>
        <path id="Path_1673" data-name="Path 1673" d="M313.048,295.525c0,.138-.691.2-1.375.658s-1.046,1.026-1.171.967.079-.855.914-1.375,1.664-.375,1.631-.25" transform="translate(-106.237 -101.083)" fill="#263238"/>
        <path id="Path_1674" data-name="Path 1674" d="M317.931,297.438c.033.138-.566.368-1.039.954s-.605,1.2-.743,1.2-.224-.789.375-1.506,1.408-.776,1.408-.645" transform="translate(-108.146 -101.759)" fill="#263238"/>
        <path id="Path_1675" data-name="Path 1675" d="M321.365,301.639c-.125,0-.316-.658.046-1.414s1-1.059,1.059-.941-.342.52-.658,1.145-.309,1.2-.447,1.21" transform="translate(-109.91 -102.401)" fill="#263238"/>
        <path id="Path_1676" data-name="Path 1676" d="M312.5,290.275c-.059.125-.691-.066-1.474,0s-1.395.3-1.467.178.52-.612,1.441-.658,1.566.368,1.5.48" transform="translate(-105.923 -99.162)" fill="#263238"/>
        <g id="Group_719" data-name="Group 719" transform="translate(192.78 182.891)" opacity="0.3">
          <g id="Group_718" data-name="Group 718">
            <g id="Group_717" data-name="Group 717" clip-path="url(#clip-path-7)">
              <path id="Path_1677" data-name="Path 1677" d="M307.084,278.027l-.1,2.6-13.913-.164-.013-2.342Z" transform="translate(-293.06 -278.027)"/>
            </g>
          </g>
        </g>
        <path id="Path_1678" data-name="Path 1678" d="M311.883,284.86a2.753,2.753,0,0,1-1.421,0,6.661,6.661,0,0,1-1.48-.46,6.589,6.589,0,0,1-.816-.434,1.974,1.974,0,0,1-.428-.335.605.605,0,0,1-.059-.737.762.762,0,0,1,.605-.316,1.782,1.782,0,0,1,.533.079,5.486,5.486,0,0,1,.881.3,4.975,4.975,0,0,1,1.316.862c.658.612.881,1.125.835,1.158s-.382-.388-1.052-.895a5.5,5.5,0,0,0-1.263-.717,4.9,4.9,0,0,0-.809-.25c-.3-.086-.559-.086-.658.046s-.033.072,0,.158a1.469,1.469,0,0,0,.316.25,7.279,7.279,0,0,0,.75.428,7.961,7.961,0,0,0,1.368.526,9.078,9.078,0,0,1,1.381.336" transform="translate(-105.249 -96.693)" fill="#263238"/>
        <path id="Path_1679" data-name="Path 1679" d="M313.646,284.013a2.36,2.36,0,0,1-.368-1.375,4.732,4.732,0,0,1,.2-1.552,5.284,5.284,0,0,1,.362-.855,1.184,1.184,0,0,1,.908-.7.657.657,0,0,1,.592.395,2.036,2.036,0,0,1,.145.526,3.091,3.091,0,0,1,0,.954,3.291,3.291,0,0,1-.612,1.46c-.553.73-1.131.895-1.145.849a5.773,5.773,0,0,0,.862-1.039,3.17,3.17,0,0,0,.454-1.316,2.871,2.871,0,0,0,0-.822c-.039-.3-.151-.539-.263-.513a1.014,1.014,0,0,0-.5.467,4.962,4.962,0,0,0-.355.763,5.089,5.089,0,0,0-.276,1.414c-.066.809.079,1.322,0,1.349" transform="translate(-107.197 -95.649)" fill="#263238"/>
        <path id="Path_1680" data-name="Path 1680" d="M272.863,167.322c-16.728,1.73-38.9,4.006-38.9,4.006l3.026,27.227s32.575-8.611,32.345-7.894,1.513,57.927,1.513,57.927H290.46l.368-64.815a16.295,16.295,0,0,0-17.965-16.452" transform="translate(-80.057 -57.225)" fill="#263238"/>
        <path id="Path_1681" data-name="Path 1681" d="M173.12,175.886v8.44c0,5.749,6.545,11.841,12.288,11.841h4.447c3.5,0,8.986-2.552,11.841-4.6l1.7-1.243,20.432,63.289s23.372-4.19,23.372-4.927-15.827-51.836-23.135-75.55c-2.986-9.683-13.36-15.314-22.945-12.031-.322.112-.658.237-.98.368-10.5,4.2-27.017,14.419-27.017,14.419" transform="translate(-59.239 -54.804)" fill="#263238"/>
        <path id="Path_1682" data-name="Path 1682" d="M267.992,249.316a1.169,1.169,0,0,1-.1-.224c-.072-.178-.158-.4-.263-.658-.224-.6-.546-1.48-.928-2.631-.783-2.283-1.855-5.618-3.158-9.742-2.631-8.242-6.1-19.669-9.907-32.3-1.895-6.322-3.69-12.341-5.335-17.827-.816-2.737-1.585-5.341-2.309-7.782q-.553-1.828-1.053-3.519a30.976,30.976,0,0,0-1.066-3.2,13.152,13.152,0,0,0-3.289-4.677,28.206,28.206,0,0,0-3.46-2.69c-1-.658-1.8-1.164-2.342-1.493l-.612-.388a.125.125,0,1,1,.02-.039l.658.342c.559.3,1.375.77,2.394,1.421a26.215,26.215,0,0,1,3.539,2.631,13.248,13.248,0,0,1,3.434,4.736,30.941,30.941,0,0,1,1.105,3.23c.349,1.125.7,2.3,1.079,3.519l2.355,7.762c1.651,5.48,3.467,11.5,5.374,17.814,3.8,12.61,7.236,24.03,9.762,32.345l3.013,9.782.842,2.631c.086.283.151.507.21.691s.046.27.033.27" transform="translate(-80.06 -55.446)" fill="#455a64"/>
        <path id="Path_1683" data-name="Path 1683" d="M291.393,190.406c.118.079-.993,1.75-1.921,4.019s-1.349,4.23-1.493,4.2a10.226,10.226,0,0,1,1.039-4.394,10.77,10.77,0,0,1,2.375-3.829" transform="translate(-98.527 -65.152)" fill="#455a64"/>
        <path id="Path_1684" data-name="Path 1684" d="M295.579,194.4c.053.132-1.631.875-3.388,2.263s-2.888,2.842-3.006,2.756a8,8,0,0,1,2.7-3.138,8.529,8.529,0,0,1,3.69-1.881" transform="translate(-98.951 -66.515)" fill="#455a64"/>
        <path id="Path_1685" data-name="Path 1685" d="M237.917,262.777c-.125.039-5.644-16.893-12.328-37.824s-11.985-37.936-11.841-37.976,5.644,16.893,12.327,37.831,11.972,37.93,11.841,37.969" transform="translate(-73.14 -63.98)" fill="#455a64"/>
        <path id="Path_1686" data-name="Path 1686" d="M212.38,134.118l66.867.645,12.472-35.246-48.639.329L231.792,131.54l-19.412.3Z" transform="translate(-72.673 -34.053)" fill="#455a64"/>
        <path id="Path_1687" data-name="Path 1687" d="M288.235,128.121a2.71,2.71,0,1,1,3.06-2.308v.006a2.71,2.71,0,0,1-3.059,2.3" transform="translate(-97.83 -41.995)" fill="#fff"/>
        <path id="Path_1688" data-name="Path 1688" d="M199.779,4.668c.658-2.348,2.4-3.5,4.7-4.282A7.551,7.551,0,0,1,211.383,1.5c1.316.987,2.3,2.414,3.842,2.947,2.526.875,5.486-1.013,7.894.118a3.447,3.447,0,0,1-1.631,6.578c1.645.605,2.158,2.954,1.2,4.421a4.6,4.6,0,0,1-4.67,1.7,9.685,9.685,0,0,1-4.532-2.539c-1.316-1.171-2.473-2.5-3.868-3.565a7.5,7.5,0,0,0-4.842-1.776,6.884,6.884,0,0,0-5.466,4.046,17.368,17.368,0,0,0-1.434,6.927A28.448,28.448,0,0,1,197,27.409a.929.929,0,0,1-.474.658c-.388.118-.717-.289-.908-.658a34.871,34.871,0,0,1-3.98-12.966c-.27-2.631-.2-5.118,1.243-7.335s5.1-3.842,6.887-2.441" transform="translate(-65.532 0)" fill="#263238"/>
        <path id="Path_1689" data-name="Path 1689" d="M196.461,17.343l-1.217,26.615c-.2,4.526.421,11.222,7.591,11.222,6.223-.474,8.058-6.289,8.249-10.525.086-1.973.164-3.671.191-3.875,0,0,6.8-.329,7.6-7.012.382-3.23.658-9.953.789-16.031A12.545,12.545,0,0,0,208.479,4.956l-.658-.066c-7.019-.322-11.222,5.44-11.361,12.452" transform="translate(-66.799 -1.669)" fill="#ffbe9d"/>
        <path id="Path_1690" data-name="Path 1690" d="M215.26,57.554a15.629,15.629,0,0,1-8.46-3.407s1.546,5.032,8.288,5.144Z" transform="translate(-70.763 -18.528)" fill="#eb996e"/>
        <path id="Path_1691" data-name="Path 1691" d="M227.693,30.443a.96.96,0,0,1-1.026.868.915.915,0,0,1-.889-.939v-.028a.96.96,0,0,1,1.02-.868.914.914,0,0,1,.9.932c0,.012,0,.023,0,.035" transform="translate(-77.257 -10.085)" fill="#263238"/>
        <path id="Path_1692" data-name="Path 1692" d="M227.69,28.573c-.132.112-.8-.5-1.829-.605s-1.835.329-1.934.191.1-.276.454-.48a2.666,2.666,0,0,1,1.566-.309,2.513,2.513,0,0,1,1.434.658c.289.263.375.5.309.546" transform="translate(-76.615 -9.36)" fill="#263238"/>
        <path id="Path_1693" data-name="Path 1693" d="M212.3,29.343a.96.96,0,0,1-1.026.868.928.928,0,0,1-.895-.959v-.008a.974.974,0,0,1,1.026-.868.921.921,0,0,1,.9.946c0,.007,0,.014,0,.021" transform="translate(-71.988 -9.709)" fill="#263238"/>
        <path id="Path_1694" data-name="Path 1694" d="M212.29,27.232c-.132.112-.8-.5-1.829-.612s-1.835.329-1.934.191.1-.27.454-.474a2.635,2.635,0,0,1,1.566-.309,2.555,2.555,0,0,1,1.434.658c.289.257.375.493.309.546" transform="translate(-71.346 -8.901)" fill="#263238"/>
        <path id="Path_1695" data-name="Path 1695" d="M218.7,35.581a6.732,6.732,0,0,1,1.7-.125c.27,0,.52,0,.585-.2a1.415,1.415,0,0,0-.092-.8c-.184-.658-.368-1.355-.566-2.079a33.848,33.848,0,0,1-1.191-5.42,33.734,33.734,0,0,1,1.625,5.309c.184.73.362,1.427.526,2.092a1.491,1.491,0,0,1,0,1.046.658.658,0,0,1-.467.342,1.807,1.807,0,0,1-.454,0,6.994,6.994,0,0,1-1.671-.164" transform="translate(-74.835 -9.224)" fill="#263238"/>
        <path id="Path_1696" data-name="Path 1696" d="M213.867,40.657c.164,0,.053,1.125.921,2.019s2.072.895,2.066,1.053-.289.191-.8.151a2.815,2.815,0,0,1-1.73-.822,2.427,2.427,0,0,1-.7-1.684c.007-.467.184-.73.237-.717" transform="translate(-73.1 -13.912)" fill="#263238"/>
        <path id="Path_1697" data-name="Path 1697" d="M212.852,21.271c-.132.27-1.145,0-2.368.046s-2.23.243-2.368,0c-.053-.125.145-.368.566-.6a4.07,4.07,0,0,1,3.6,0c.421.184.625.428.566.553" transform="translate(-71.211 -6.945)" fill="#263238"/>
        <path id="Path_1698" data-name="Path 1698" d="M227.758,23.963c-.2.211-.888-.105-1.737-.211s-1.592,0-1.73-.27c-.066-.125.072-.349.414-.539a2.455,2.455,0,0,1,1.454-.23,2.414,2.414,0,0,1,1.316.618c.3.27.375.526.283.632" transform="translate(-76.743 -7.763)" fill="#263238"/>
        <path id="Path_1699" data-name="Path 1699" d="M194.636,31.243c-.112-.059-4.453-1.848-4.8,2.743s4.342,3.986,4.355,3.855.441-6.6.441-6.6" transform="translate(-64.954 -10.557)" fill="#ffbe9d"/>
        <path id="Path_1700" data-name="Path 1700" d="M193.539,36.753a1.457,1.457,0,0,1-.224.105.833.833,0,0,1-.6-.033,2.006,2.006,0,0,1-.789-1.848,2.66,2.66,0,0,1,.309-1.125.934.934,0,0,1,.658-.572.414.414,0,0,1,.454.257c.053.132,0,.224.039.23s.105-.066.086-.263a.486.486,0,0,0-.164-.3.594.594,0,0,0-.434-.151,1.138,1.138,0,0,0-.888.658,2.763,2.763,0,0,0-.368,1.256,2.085,2.085,0,0,0,1.02,2.072.855.855,0,0,0,.737-.072c.145-.105.178-.211.164-.217" transform="translate(-65.568 -11.311)" fill="#eb996e"/>
        <path id="Path_1701" data-name="Path 1701" d="M221.449,15.969a9.742,9.742,0,0,1-8.381-2.848c-1.48-1.552-2.526-3.671-4.5-4.519a5.488,5.488,0,0,0-4.217.125,10.523,10.523,0,0,0-3.46,2.565c.928,3.539-.342,7.236-1.6,10.676a1.835,1.835,0,0,1-.658,1c-.585.362-1.362-.053-1.783-.6a5.68,5.68,0,0,1-.921-3.111,18.878,18.878,0,0,1,.829-7.42,12.947,12.947,0,0,1,4.21-6.091,12.193,12.193,0,0,1,8.874-2.276,14.965,14.965,0,0,1,8.315,4.006,8.761,8.761,0,0,1,2.467,3.539" transform="translate(-67.02 -1.15)" fill="#263238"/>
        <path id="Path_1702" data-name="Path 1702" d="M37.772,237a12.437,12.437,0,0,1,7.683-.941,6.449,6.449,0,0,1,3.809,1.7,2.739,2.739,0,0,1,.039,3.8,3.656,3.656,0,0,1-2.4.605c-2.039,0-4.3-.382-5.92.849-.934.7-1.552,1.862-2.631,2.2a2.631,2.631,0,0,1-2.888-1.283,4.511,4.511,0,0,1-.322-3.289A5.052,5.052,0,0,1,37.772,237" transform="translate(-11.965 -80.694)" fill="#22c98c"/>
        <path id="Path_1703" data-name="Path 1703" d="M30.355,210.782c1.434,2.046,4.223,1.368,5.513.118a10.392,10.392,0,0,0,2.335-4.789c1.138-3.947,2.283-8.091,1.441-12.11a6.726,6.726,0,0,0-1.552-3.289,3.512,3.512,0,0,0-3.329-1.112c-1.4.375-2.276,1.75-2.908,3.059A28.86,28.86,0,0,0,29,205.046a10.113,10.113,0,0,0,1.355,5.736" transform="translate(-9.923 -64.854)" fill="#22c98c"/>
        <path id="Path_1704" data-name="Path 1704" d="M16.492,217.132a7.46,7.46,0,0,0,1.164-6.861,13.241,13.241,0,0,0-4.065-5.92,21.81,21.81,0,0,0-7.236-4.3,7.8,7.8,0,0,0-3.289-.553A3.434,3.434,0,0,0,.322,201.16c-.763,1.46-.033,3.23.763,4.677a55.475,55.475,0,0,0,4.776,7.308,12.952,12.952,0,0,0,5.263,4.5c2.191.835,4.447.737,5.6-.776" transform="translate(0 -68.263)" fill="#22c98c"/>
        <path id="Path_1705" data-name="Path 1705" d="M30.9,258.995a4.285,4.285,0,0,0,.132-.928c.066-.658.151-1.526.25-2.539a36.848,36.848,0,0,1,.566-3.723,29.127,29.127,0,0,1,1.355-4.4,16.273,16.273,0,0,1,2.25-3.947,8.368,8.368,0,0,1,2.835-2.4,7.654,7.654,0,0,1,2.388-.743,4.606,4.606,0,0,0,.928-.138,4.683,4.683,0,0,0-.941,0,7.124,7.124,0,0,0-2.493.658,8.275,8.275,0,0,0-2.993,2.375,15.951,15.951,0,0,0-2.3,4.052,26.81,26.81,0,0,0-1.316,4.473,31.6,31.6,0,0,0-.5,3.769c-.079,1.079-.105,1.973-.125,2.559a4.308,4.308,0,0,0-.033.934" transform="translate(-10.571 -82.175)" fill="#263238"/>
        <path id="Path_1706" data-name="Path 1706" d="M31.088,243.992a1.936,1.936,0,0,0,0-.428v-1.237c0-1.072,0-2.631.059-4.539.092-3.829.421-7.953,1.059-13.762.605-5.466,1.414-11.841,2.269-15.959.178-.941.362-1.789.539-2.526s.309-1.381.441-1.9.217-.888.289-1.2a1.736,1.736,0,0,0,.079-.421,1.566,1.566,0,0,0-.151.4c-.1.309-.217.7-.362,1.184s-.322,1.151-.507,1.888-.395,1.585-.6,2.519a141.821,141.821,0,0,0-2.381,14.807,149.728,149.728,0,0,0-.914,14.972c0,1.914,0,3.473.066,4.546,0,.5.059.908.079,1.23a1.638,1.638,0,0,0,.033.428" transform="translate(-10.577 -69.127)" fill="#263238"/>
        <path id="Path_1707" data-name="Path 1707" d="M24.092,235.4a8.447,8.447,0,0,0,0-1.316,34.536,34.536,0,0,0-.395-3.5,46.431,46.431,0,0,0-1.125-5.065,41.854,41.854,0,0,0-2.131-6.026,32.191,32.191,0,0,0-6.256-9.736,16.831,16.831,0,0,0-1.48-1.368,7.679,7.679,0,0,0-.658-.526l-.572-.395a8.1,8.1,0,0,0-1.085-.7,38.264,38.264,0,0,1,3.559,3.177,33.73,33.73,0,0,1,6.1,9.7,47.648,47.648,0,0,1,2.144,5.966c.559,1.875.928,3.592,1.21,5.039s.421,2.631.513,3.467a7.729,7.729,0,0,0,.178,1.276" transform="translate(-3.555 -70.752)" fill="#263238"/>
        <path id="Path_1708" data-name="Path 1708" d="M16.19,277.707l1.026,14.038H35.253l1.02-14.038Z" transform="translate(-5.54 -95.027)" fill="#263238"/>
        <rect id="Rectangle_716" data-name="Rectangle 716" width="23.977" height="5.532" transform="translate(8.907 177.148)" fill="#263238"/>
        <path id="Path_1709" data-name="Path 1709" d="M13.54,298.237v1.533H37.122v-1.533Z" transform="translate(-4.633 -102.052)" fill="#455a64"/>
        <path id="Path_1710" data-name="Path 1710" d="M16.355,303.264l-1.105-2.7h21.6l-1.289,2.7Z" transform="translate(-5.218 -102.849)" fill="#455a64"/>
        <path id="Path_1711" data-name="Path 1711" d="M36.1,283.688a1.35,1.35,0,0,1-.086.125l-.27.362-1.053,1.316-.046.059-.046-.059-2.579-3.572h.145l-2.539,3.638-.079.112-.092-.105c-.934-1.118-1.973-2.329-3.013-3.585h.171c-.046.066-.105.132-.164.2l-2.69,3.375-.092.112-.086-.118-2.539-3.6h.145l-3.131,3.6-.053.059-.046-.072c-.408-.691-.737-1.243-.98-1.645l-.25-.441-.079-.151a.6.6,0,0,1,.105.138l.283.421,1.026,1.618h-.1l3.085-3.6.072-.092.072.1,2.565,3.579H23.59l2.69-3.381.164-.211.086-.105.086.105,3.006,3.592h-.171l2.572-3.579.072-.105.072.105,2.526,3.6h-.112l1.1-1.316.289-.342c.086-.112.125-.151.132-.145" transform="translate(-5.697 -96.416)" fill="#e0e0e0"/>
        <path id="Path_1712" data-name="Path 1712" d="M36.608,277.469c0,.066-4.519.112-10.1.112s-10.091-.046-10.091-.112,4.519-.112,10.091-.112,10.1.112,10.1.112" transform="translate(-5.619 -94.907)" fill="#455a64"/>
        <path id="Path_1713" data-name="Path 1713" d="M37.078,300.739c0,.059-4.914.112-10.966.112s-10.972-.053-10.972-.112,4.914-.112,10.972-.112,10.966.053,10.966.112" transform="translate(-5.181 -102.869)" fill="#263238"/>
        <path id="Path_1714" data-name="Path 1714" d="M366.1,55.087,353.57,107.5h3.506l12.341-52.408Z" transform="translate(-120.985 -18.85)" fill="#263238"/>
        <path id="Path_1715" data-name="Path 1715" d="M364.458,107.527c-.224.96,5.677,29.529,5.677,29.529h-2.842l-4.453-22.642Z" transform="translate(-124.158 -36.794)" fill="#263238"/>
        <path id="Path_2155" data-name="Path 2155" d="M0,0H58.7V62.223H0Z" transform="translate(223.336 138.048)" fill="#268f88"/>
        <rect id="Rectangle_718" data-name="Rectangle 718" width="2.881" height="2.881" transform="translate(282.026 147.139)" fill="#263238"/>
        <rect id="Rectangle_719" data-name="Rectangle 719" width="2.881" height="2.881" transform="translate(282.026 156.289)" fill="#263238"/>
        <rect id="Rectangle_720" data-name="Rectangle 720" width="2.881" height="2.881" transform="translate(282.026 165.439)" fill="#263238"/>
        <rect id="Rectangle_721" data-name="Rectangle 721" width="2.881" height="2.881" transform="translate(282.026 174.589)" fill="#263238"/>
        <path id="Path_1716" data-name="Path 1716" d="M433.184,252.554a4.639,4.639,0,0,1,.881-.191,14.056,14.056,0,0,1,2.473-.237,6.637,6.637,0,0,1,3.565.941,4.118,4.118,0,0,1,1.973,3.947,4.968,4.968,0,0,1-.75,2.256,5.919,5.919,0,0,1-1.513,1.605,7.73,7.73,0,0,1-3.434,1.355,11.13,11.13,0,0,1-2.48.086,3.934,3.934,0,0,1-.9-.125,5.574,5.574,0,0,1,.9,0,13.132,13.132,0,0,0,2.44-.191,7.706,7.706,0,0,0,3.289-1.368,5.059,5.059,0,0,0,2.112-3.638,3.815,3.815,0,0,0-1.809-3.657,6.531,6.531,0,0,0-3.4-.96,17.089,17.089,0,0,0-2.447.125,4.446,4.446,0,0,1-.9.053" transform="translate(-148.165 -86.273)" fill="#263238"/>
        <path id="Path_1717" data-name="Path 1717" d="M432.19,238.516a1.2,1.2,0,0,1,.27-.164,5.959,5.959,0,0,1,.855-.342,6.728,6.728,0,0,1,3.375-.191,3.073,3.073,0,0,1,1.072.428,1.861,1.861,0,0,1,.756,1.026,3.125,3.125,0,0,1-1.875,3.519,1.914,1.914,0,0,1-1.585-.086,1.625,1.625,0,0,1-.914-1.381,1.657,1.657,0,0,1,.934-1.427,2.524,2.524,0,0,1,1.677-.178,3.567,3.567,0,0,1,1.467.7,3.949,3.949,0,0,1,1.46,2.631,3.671,3.671,0,0,1-.75,2.631,5.316,5.316,0,0,1-1.8,1.52,8.552,8.552,0,0,1-3.289.855c-.395.033-.7.046-.914.046a1.019,1.019,0,0,1-.322,0s.441-.059,1.224-.158a9.122,9.122,0,0,0,3.171-.934,5.161,5.161,0,0,0,1.691-1.48,3.427,3.427,0,0,0,.658-2.4,3.637,3.637,0,0,0-1.355-2.388,3.144,3.144,0,0,0-1.316-.625,2.244,2.244,0,0,0-1.454.145,1.2,1.2,0,0,0-.02,2.21,1.559,1.559,0,0,0,1.316.072,2.57,2.57,0,0,0,1.085-.789,2.67,2.67,0,0,0,.658-2.342,1.973,1.973,0,0,0-1.612-1.316,6.945,6.945,0,0,0-3.289.079c-.77.164-1.158.375-1.171.342" transform="translate(-147.888 -81.333)" fill="#263238"/>
        <path id="Path_1718" data-name="Path 1718" d="M432.23,225.309a1.555,1.555,0,0,1,.658-.118,4.6,4.6,0,0,1,1.763.217,4.972,4.972,0,0,1,2.191,1.48,4.838,4.838,0,0,1,1.138,3.026,4.9,4.9,0,0,1-.947,3.092,4.96,4.96,0,0,1-2.118,1.612,4.6,4.6,0,0,1-1.743.355,1.52,1.52,0,0,1-.658-.079,6.49,6.49,0,0,0,2.289-.493,4.931,4.931,0,0,0,1.941-1.579,4.8,4.8,0,0,0-.171-5.723,5.017,5.017,0,0,0-2.033-1.454,6.477,6.477,0,0,0-2.309-.335" transform="translate(-147.902 -77.052)" fill="#263238"/>
        <path id="Path_1719" data-name="Path 1719" d="M366,159.6a5.669,5.669,0,0,1,.493,1.164,22.228,22.228,0,0,1,.783,3.532c.243,1.552.447,3.467.658,5.684s.388,4.756.743,7.539c.092.691.2,1.4.349,2.118a9.338,9.338,0,0,0,.658,2.118,7.713,7.713,0,0,0,1.441,1.776,11.248,11.248,0,0,0,6.637,3.079,9.339,9.339,0,0,0,5.184-.895,6.281,6.281,0,0,0,3.348-4.21,4.836,4.836,0,0,0-.2-2.8,4.943,4.943,0,0,0-1.822-2.2,5.471,5.471,0,0,0-2.776-.921,4.389,4.389,0,0,0-2.809.822,3.079,3.079,0,0,0-.954,1.125,2.294,2.294,0,0,0-.184,1.434,3.466,3.466,0,0,0,1.822,2.316,8.387,8.387,0,0,0,3,.829,27.765,27.765,0,0,0,3.118.217,49.6,49.6,0,0,0,6.131-.342c4-.447,7.894-1.092,11.6-1.131a22.751,22.751,0,0,1,10.334,1.973A12.171,12.171,0,0,1,417.4,185.7a8.81,8.81,0,0,1,1.973,3.947,10.629,10.629,0,0,1-1.151,7.4,12.451,12.451,0,0,1-3.9,4.164,14.687,14.687,0,0,1-3.223,1.645,9.955,9.955,0,0,1-1.21.362l.3-.112c.2-.059.5-.171.881-.316a15.177,15.177,0,0,0,3.177-1.691,12.462,12.462,0,0,0,3.809-4.144,10.526,10.526,0,0,0,1.072-7.236,8.7,8.7,0,0,0-1.973-3.828,11.9,11.9,0,0,0-3.769-2.789,22.356,22.356,0,0,0-10.2-1.888c-3.684.086-7.552.691-11.571,1.145a47.531,47.531,0,0,1-6.17.355,28.473,28.473,0,0,1-3.158-.217,8.683,8.683,0,0,1-3.118-.868,3.82,3.82,0,0,1-1.973-2.552,2.663,2.663,0,0,1,.21-1.645,3.43,3.43,0,0,1,1.059-1.25,4.735,4.735,0,0,1,3.026-.895,5.858,5.858,0,0,1,2.954.987,5.262,5.262,0,0,1,1.941,2.355,5.184,5.184,0,0,1,.21,2.993,6.578,6.578,0,0,1-3.526,4.414,9.59,9.59,0,0,1-5.361.914,11.354,11.354,0,0,1-4.855-1.671,11.235,11.235,0,0,1-1.941-1.506,7.908,7.908,0,0,1-1.487-1.855,9.512,9.512,0,0,1-.658-2.191q-.21-1.085-.336-2.131c-.342-2.8-.507-5.328-.7-7.552s-.375-4.131-.592-5.684a23.845,23.845,0,0,0-.717-3.532,8.654,8.654,0,0,0-.309-.888A2.96,2.96,0,0,1,366,159.6" transform="translate(-125.239 -54.611)" fill="#263238"/>
        <path id="Path_1720" data-name="Path 1720" d="M395.977,270.7v-4.151c0-2.7,0-6.651-.039-11.657,0-10.019-.046-24.293-.079-41.37l.151.151H342.957l.171-.171v57.177l-.145-.145,38.443.072,10.782.039h2.881l-2.894.053-10.742.039-38.542.072h-.151v-57.46h53.382v.118c-.033,17.1-.059,31.424-.079,41.443,0,5,0,8.933-.039,11.624v3.835a1.2,1.2,0,0,1-.046.329" transform="translate(-117.287 -73.004)" fill="#263238"/>
        <path id="Path_1721" data-name="Path 1721" d="M400.6,224.115a.27.27,0,0,1-.263.276h-.007a.276.276,0,1,1-.085-.546.262.262,0,0,1,.085,0,.27.27,0,0,1,.27.27" transform="translate(-136.878 -76.595)" fill="#263238"/>
        <path id="Path_1722" data-name="Path 1722" d="M402.914,224.115a.27.27,0,0,1-.263.276h-.007a.276.276,0,1,1-.085-.546.262.262,0,0,1,.085,0,.27.27,0,0,1,.27.27" transform="translate(-137.669 -76.595)" fill="#263238"/>
        <path id="Path_1723" data-name="Path 1723" d="M405.194,224.115a.27.27,0,0,1-.263.276h-.007a.276.276,0,1,1-.085-.546.262.262,0,0,1,.085,0,.27.27,0,0,1,.27.27" transform="translate(-138.449 -76.595)" fill="#263238"/>
        <path id="Path_1724" data-name="Path 1724" d="M407.493,224.117a.276.276,0,1,1-.283-.27h.007a.276.276,0,0,1,.276.27" transform="translate(-139.248 -76.597)" fill="#263238"/>
        <path id="Path_1725" data-name="Path 1725" d="M409.795,224.117a.254.254,0,1,1-.276-.27.276.276,0,0,1,.276.27" transform="translate(-140.05 -76.597)" fill="#263238"/>
        <path id="Path_1726" data-name="Path 1726" d="M412.075,224.117a.254.254,0,1,1-.276-.27.276.276,0,0,1,.276.27" transform="translate(-140.83 -76.597)" fill="#263238"/>
        <path id="Path_1727" data-name="Path 1727" d="M414.355,224.117a.254.254,0,1,1-.276-.27.276.276,0,0,1,.276.27" transform="translate(-141.61 -76.597)" fill="#263238"/>
        <path id="Path_1728" data-name="Path 1728" d="M413.01,225.387a.27.27,0,1,1-.27.27.27.27,0,0,1,.27-.27" transform="translate(-141.232 -77.124)" fill="#263238"/>
        <path id="Path_1729" data-name="Path 1729" d="M410.68,225.387a.27.27,0,1,1-.27.27.27.27,0,0,1,.27-.27" transform="translate(-140.435 -77.124)" fill="#263238"/>
        <path id="Path_1730" data-name="Path 1730" d="M408.626,225.653a.273.273,0,0,1-.546.007v-.007a.276.276,0,0,1,.276-.276.27.27,0,0,1,.27.27v.007" transform="translate(-139.638 -77.12)" fill="#263238"/>
        <path id="Path_1731" data-name="Path 1731" d="M406.02,225.387a.27.27,0,1,1-.27.27.27.27,0,0,1,.27-.27" transform="translate(-138.841 -77.124)" fill="#263238"/>
        <path id="Path_1732" data-name="Path 1732" d="M403.68,225.387a.27.27,0,1,1-.27.27.27.27,0,0,1,.27-.27" transform="translate(-138.04 -77.124)" fill="#263238"/>
        <path id="Path_1733" data-name="Path 1733" d="M401.626,225.653a.27.27,0,0,1-.27.27h-.007a.273.273,0,0,1-.007-.546h.007A.276.276,0,0,1,401.626,225.653Z" transform="translate(-137.243 -77.12)" fill="#263238"/>
        <path id="Path_1734" data-name="Path 1734" d="M400.626,227.383a.273.273,0,0,1-.546.007v-.007a.276.276,0,0,1,.276-.276.27.27,0,0,1,.27.27v.007" transform="translate(-136.9 -77.712)" fill="#263238"/>
        <path id="Path_1735" data-name="Path 1735" d="M402.936,227.383a.273.273,0,0,1-.546.007v-.007a.276.276,0,0,1,.276-.276.27.27,0,0,1,.27.27v.007" transform="translate(-137.691 -77.712)" fill="#263238"/>
        <path id="Path_1736" data-name="Path 1736" d="M405.216,227.383a.273.273,0,0,1-.546.007v-.007a.276.276,0,0,1,.276-.276.27.27,0,0,1,.27.27v.007" transform="translate(-138.471 -77.712)" fill="#263238"/>
        <path id="Path_1737" data-name="Path 1737" d="M407.494,227.361a.277.277,0,1,1,0-.085.262.262,0,0,1,0,.085" transform="translate(-139.249 -77.69)" fill="#263238"/>
        <path id="Path_1738" data-name="Path 1738" d="M409.776,227.383a.27.27,0,0,1-.27.27H409.5a.273.273,0,0,1-.007-.546h.007A.276.276,0,0,1,409.776,227.383Z" transform="translate(-140.031 -77.712)" fill="#263238"/>
        <path id="Path_1739" data-name="Path 1739" d="M412.056,227.383a.27.27,0,0,1-.27.27h-.007a.273.273,0,0,1-.007-.546h.007A.276.276,0,0,1,412.056,227.383Z" transform="translate(-140.812 -77.712)" fill="#263238"/>
        <path id="Path_1740" data-name="Path 1740" d="M414.336,227.383a.27.27,0,0,1-.27.27h-.007a.273.273,0,0,1-.007-.546h.007A.276.276,0,0,1,414.336,227.383Z" transform="translate(-141.592 -77.712)" fill="#263238"/>
        <path id="Path_1741" data-name="Path 1741" d="M413.286,228.917a.276.276,0,0,1-.276.276.27.27,0,0,1-.27-.27v-.007a.273.273,0,0,1,.546-.007v.007" transform="translate(-141.232 -78.239)" fill="#263238"/>
        <path id="Path_1742" data-name="Path 1742" d="M410.946,228.917a.27.27,0,0,1-.263.276h-.007a.276.276,0,0,1-.276-.276.27.27,0,0,1,.27-.27h.007a.27.27,0,0,1,.27.27" transform="translate(-140.432 -78.239)" fill="#263238"/>
        <path id="Path_1743" data-name="Path 1743" d="M408.626,228.917a.27.27,0,0,1-.263.276h-.007a.276.276,0,0,1-.276-.276.27.27,0,0,1,.27-.27h.007a.27.27,0,0,1,.27.27" transform="translate(-139.638 -78.239)" fill="#263238"/>
        <path id="Path_1744" data-name="Path 1744" d="M406.286,228.917a.27.27,0,0,1-.263.276h-.007a.276.276,0,0,1-.276-.276.27.27,0,0,1,.27-.27h.007a.27.27,0,0,1,.27.27" transform="translate(-138.837 -78.239)" fill="#263238"/>
        <path id="Path_1745" data-name="Path 1745" d="M403.954,228.935a.276.276,0,1,1-.546.085.264.264,0,0,1,0-.085.276.276,0,0,1,.546,0" transform="translate(-138.038 -78.258)" fill="#263238"/>
        <path id="Path_1746" data-name="Path 1746" d="M401.626,228.917a.276.276,0,0,1-.276.276.27.27,0,0,1-.27-.27v-.007a.273.273,0,0,1,.546-.007v.007" transform="translate(-137.243 -78.239)" fill="#263238"/>
        <path id="Path_1747" data-name="Path 1747" d="M400.626,230.647a.27.27,0,0,1-.263.276h-.007a.276.276,0,0,1-.276-.276.27.27,0,0,1,.27-.27h.007a.27.27,0,0,1,.27.27" transform="translate(-136.9 -78.831)" fill="#263238"/>
        <path id="Path_1748" data-name="Path 1748" d="M402.936,230.647a.27.27,0,0,1-.263.276h-.007a.276.276,0,0,1-.276-.276.27.27,0,0,1,.27-.27h.007a.27.27,0,0,1,.27.27" transform="translate(-137.691 -78.831)" fill="#263238"/>
        <path id="Path_1749" data-name="Path 1749" d="M405.216,230.647a.27.27,0,0,1-.263.276h-.007a.276.276,0,0,1-.276-.276.27.27,0,0,1,.27-.27h.007a.27.27,0,0,1,.27.27" transform="translate(-138.471 -78.831)" fill="#263238"/>
        <path id="Path_1750" data-name="Path 1750" d="M407.494,230.665a.276.276,0,1,1-.546.085.261.261,0,0,1,0-.085.276.276,0,0,1,.546,0" transform="translate(-139.249 -78.85)" fill="#263238"/>
        <path id="Path_1751" data-name="Path 1751" d="M409.776,230.647a.276.276,0,0,1-.276.276.27.27,0,0,1-.27-.27v-.007a.273.273,0,0,1,.546-.007v.007" transform="translate(-140.031 -78.831)" fill="#263238"/>
        <path id="Path_1752" data-name="Path 1752" d="M412.056,230.647a.276.276,0,0,1-.276.276.27.27,0,0,1-.27-.27v-.007a.273.273,0,0,1,.546-.007v.007" transform="translate(-140.812 -78.831)" fill="#263238"/>
        <path id="Path_1753" data-name="Path 1753" d="M414.336,230.647a.276.276,0,0,1-.276.276.27.27,0,0,1-.27-.27v-.007a.273.273,0,0,1,.546-.007v.007" transform="translate(-141.592 -78.831)" fill="#263238"/>
        <path id="Path_1754" data-name="Path 1754" d="M413.01,231.917a.27.27,0,1,1-.27.27.27.27,0,0,1,.27-.27" transform="translate(-141.232 -79.358)" fill="#263238"/>
        <path id="Path_1755" data-name="Path 1755" d="M410.68,231.917a.27.27,0,1,1-.27.27.27.27,0,0,1,.27-.27" transform="translate(-140.435 -79.358)" fill="#263238"/>
        <path id="Path_1756" data-name="Path 1756" d="M408.6,232.181a.27.27,0,0,1-.27.27.276.276,0,1,1-.085-.546.262.262,0,0,1,.085,0,.27.27,0,0,1,.27.27v.007" transform="translate(-139.616 -79.353)" fill="#263238"/>
        <path id="Path_1757" data-name="Path 1757" d="M406.02,231.917a.27.27,0,1,1-.27.27.27.27,0,0,1,.27-.27" transform="translate(-138.841 -79.358)" fill="#263238"/>
        <path id="Path_1758" data-name="Path 1758" d="M403.68,231.917a.27.27,0,1,1-.27.27.27.27,0,0,1,.27-.27" transform="translate(-138.04 -79.358)" fill="#263238"/>
        <path id="Path_1759" data-name="Path 1759" d="M401.645,232.183a.254.254,0,1,1-.276-.276.276.276,0,0,1,.276.276" transform="translate(-137.261 -79.355)" fill="#263238"/>
        <path id="Path_1760" data-name="Path 1760" d="M357.348,130.817a3.439,3.439,0,0,1,1.066.191,5.976,5.976,0,0,1,2.592,1.691,11.283,11.283,0,0,1,2.3,4.342,43.055,43.055,0,0,1,1.441,6.361,80.266,80.266,0,0,1,.421,16.939,9.934,9.934,0,0,1-1.474,4.7,6.041,6.041,0,0,1-1.855,1.8,4.157,4.157,0,0,1-2.566.612,3.986,3.986,0,0,1-2.441-1.138,2.982,2.982,0,0,1-.717-1.191,2.523,2.523,0,0,1,0-1.414,3.033,3.033,0,0,1,1.835-2.072,2.163,2.163,0,0,1,1.454,0,2.594,2.594,0,0,1,1.158.875,3.592,3.592,0,0,1,.658,2.723,7.406,7.406,0,0,1-.954,2.592,10.018,10.018,0,0,1-13.485,3.907,11.444,11.444,0,0,1-3.552-3.059,14.983,14.983,0,0,1-2.191-3.835,25.34,25.34,0,0,1-1.441-7.762c-.125-2.414,0-4.6-.23-6.5a11.1,11.1,0,0,0-.612-2.565,7.341,7.341,0,0,0-1.1-1.921,5.535,5.535,0,0,0-2.447-1.809,7.827,7.827,0,0,0-1.046-.25,3.5,3.5,0,0,1,1.072.191A5.382,5.382,0,0,1,337.752,146a7.3,7.3,0,0,1,1.151,1.973,11.1,11.1,0,0,1,.658,2.631c.257,1.914.138,4.1.283,6.506a25.3,25.3,0,0,0,1.467,7.677,14.771,14.771,0,0,0,2.125,3.776,11.177,11.177,0,0,0,3.467,2.967,9.7,9.7,0,0,0,13.038-3.8,7.058,7.058,0,0,0,.908-2.467,3.237,3.237,0,0,0-.572-2.473,2.341,2.341,0,0,0-1.006-.763,1.817,1.817,0,0,0-1.224,0,2.7,2.7,0,0,0-1.618,1.835,2.362,2.362,0,0,0,.658,2.283,3.639,3.639,0,0,0,2.23,1.039,3.817,3.817,0,0,0,2.362-.559,5.7,5.7,0,0,0,1.756-1.7,9.64,9.64,0,0,0,1.427-4.546,81.464,81.464,0,0,0-.342-16.873,44.087,44.087,0,0,0-1.388-6.335,11.254,11.254,0,0,0-2.21-4.309,6,6,0,0,0-2.513-1.717,7.926,7.926,0,0,0-1.059-.329" transform="translate(-114.344 -44.763)" fill="#e0e0e0"/>
        <rect id="Rectangle_722" data-name="Rectangle 722" width="21.853" height="4.164" transform="translate(215.988 95.572)" fill="#e0e0e0"/>
        <rect id="Rectangle_723" data-name="Rectangle 723" width="28.503" height="61.355" transform="translate(51.593 138.62)" fill="#263238"/>
        <path id="Path_1761" data-name="Path 1761" d="M105.567,266.587V262.62c0-2.565,0-6.282-.046-10.959,0-9.354-.046-22.524-.079-37.844l.164.158H81.761l.171-.171c0,20.5,0,39.114-.046,52.77l-.125-.125,17.412.066,4.763.033H99.252l-17.491.066h-.118v-.125c0-13.656,0-32.273-.053-52.77v-.171h24.188v.164c0,15.367-.059,28.576-.079,37.956,0,4.657,0,8.367-.046,10.92v3.644a.946.946,0,0,1-.086.355" transform="translate(-27.919 -73.072)" fill="#455a64"/>
        <path id="Path_1762" data-name="Path 1762" d="M104.946,219.337v-.658c0-.428,0-1.026-.039-1.776l.072.072c-3.69.059-11.6.1-20.734.1l.171-.171v2.414l-.164-.171c5.8,0,10.953.039,14.682.072l4.414.046h1.2a2.177,2.177,0,0,1,.434,0,2.727,2.727,0,0,1-.388,0h-1.171l-4.368.046c-3.723.039-8.94.072-14.807.072H84.08V216.8l.178-.171c9.137,0,17.044.039,20.734.1h.026v.072c0,.77,0,1.375-.039,1.822a5.556,5.556,0,0,1-.033.717" transform="translate(-28.771 -74.126)" fill="#455a64"/>
        <path id="Path_1763" data-name="Path 1763" d="M86.454,223.3c0,.092-.428.171-.954.171s-.96-.079-.96-.171.428-.171.96-.171.954.072.954.171" transform="translate(-28.928 -76.35)" fill="#455a64"/>
        <path id="Path_1764" data-name="Path 1764" d="M104.695,228.108c0,.092-4.414.171-9.867.171s-9.867-.079-9.867-.171,4.407-.171,9.867-.171,9.867.079,9.867.171" transform="translate(-29.072 -77.996)" fill="#455a64"/>
        <path id="Path_1765" data-name="Path 1765" d="M105.009,233.918c0,.1-4.342.171-9.69.171s-9.69-.072-9.69-.171,4.335-.171,9.69-.171,9.69.079,9.69.171" transform="translate(-29.301 -79.984)" fill="#455a64"/>
        <path id="Path_1766" data-name="Path 1766" d="M99.156,245.217a1.566,1.566,0,1,1-1.566,1.566,1.566,1.566,0,0,1,1.566-1.566" transform="translate(-33.394 -83.909)" fill="#ff725e"/>
        <path id="Path_1767" data-name="Path 1767" d="M91.081,247.427a6.666,6.666,0,0,1-2.1.171,6.617,6.617,0,0,1-2.072-.171A6.4,6.4,0,0,1,89,247.255a6.467,6.467,0,0,1,2.079.171" transform="translate(-29.739 -84.599)" fill="#455a64"/>
        <path id="Path_1768" data-name="Path 1768" d="M110.557,246.768a11.472,11.472,0,0,1-3.947,0,11.47,11.47,0,0,1,3.947,0" transform="translate(-36.48 -84.375)" fill="#455a64"/>
        <path id="Path_1769" data-name="Path 1769" d="M74.408,224.376a6.1,6.1,0,0,1-1.066-.2,9.34,9.34,0,0,1-2.822-1.316,12.086,12.086,0,0,1-3.4-3.546,20.5,20.5,0,0,1-2.48-6.026,24.614,24.614,0,0,1-.756-7.848,16.116,16.116,0,0,1,2.993-8.512,13.422,13.422,0,0,1,3.572-3.394,12.451,12.451,0,0,1,2.3-1.138,12.755,12.755,0,0,1,2.539-.605c1.737-.243,3.513-.21,5.263-.316a13.1,13.1,0,0,0,5.2-1.2,5.841,5.841,0,0,0,3.236-3.947,5.545,5.545,0,0,0-5.539-6.776,3.949,3.949,0,0,0-2.2.816,2.382,2.382,0,0,0-.921,1.973,3.19,3.19,0,0,0,2.934,2.835,4.835,4.835,0,0,0,3.763-1.691,9.054,9.054,0,0,0,1.855-3.585,30.919,30.919,0,0,0,.756-3.69,60.828,60.828,0,0,0,.349-11.387c-.066-1.316-.118-2.375-.158-3.1a6.453,6.453,0,0,0-.039-.809,1.491,1.491,0,0,1,0-.276,1.5,1.5,0,0,1,.039.276c0,.2.039.46.072.8.053.71.138,1.75.217,3.1a57.986,57.986,0,0,1-.243,11.426,30.613,30.613,0,0,1-.743,3.73,9.33,9.33,0,0,1-1.862,3.69,5.1,5.1,0,0,1-3.993,1.8,3.486,3.486,0,0,1-3.23-3.118,2.717,2.717,0,0,1,1.033-2.25,4.2,4.2,0,0,1,2.375-.888,5.921,5.921,0,0,1,4.664,9.644,6.776,6.776,0,0,1-2.2,1.717,13.418,13.418,0,0,1-5.341,1.237c-1.8.105-3.565.072-5.263.3a12.776,12.776,0,0,0-2.473.585,11.71,11.71,0,0,0-2.23,1.105,13.243,13.243,0,0,0-3.5,3.289,15.893,15.893,0,0,0-2.96,8.341,24.618,24.618,0,0,0,.737,7.782,20.716,20.716,0,0,0,2.408,5.98,12.071,12.071,0,0,0,3.289,3.539,9.721,9.721,0,0,0,2.769,1.355c.335.1.6.158.776.2a1.217,1.217,0,0,1,.283.092" transform="translate(-21.842 -54.971)" fill="#263238"/>
        <rect id="Rectangle_724" data-name="Rectangle 724" width="67.492" height="46.35" transform="translate(42.863 43.44)" fill="#263238"/>
        <rect id="Rectangle_725" data-name="Rectangle 725" width="9.19" height="17.485" transform="translate(71.393 83.468)" fill="#263238"/>
        <path id="Path_1770" data-name="Path 1770" d="M75.37,152.163v6.289h34.825v93.713h3.2V158.452l145.437.717v93h3.144V159l22.445.178v-7.558Z" transform="translate(-25.79 -51.881)" fill="#263238"/>
        <path id="Path_1771" data-name="Path 1771" d="M108.569,160.147l13.729,9.887-1.191,1.145L107.26,160.753Z" transform="translate(-36.702 -54.8)" fill="#263238"/>
        <path id="Path_1772" data-name="Path 1772" d="M370.432,161.547,354.5,172.895l1.2,1.145,16.044-11.887Z" transform="translate(-121.304 -55.279)" fill="#263238"/>
        <rect id="Rectangle_726" data-name="Rectangle 726" width="35.996" height="2.651" transform="translate(100.218 97.96)" fill="#263238"/>
      </g>
    </g>
  </g>
</svg>
